STARTFONT 2.1
FONT -PfaEdit-legeblamedium-Medium-R-Normal--16-150-75-75-M-80-ISO10646-1
SIZE 15 75 75
FONTBOUNDINGBOX 8 16 0 -4
COMMENT $Id: legebla.bdf,v 1.2 2002/02/14 15:26:32 peterlin Exp $
COMMENT
COMMENT This font is modelled after fonts in ISO.CPI supplied with
COMMENT MS-DOS 6.22 and is believed to comply with Part 3 of the
COMMENT ISO 9241 Specification. Typeface is named legebla (Esperanto
COMMENT word for "legible").
COMMENT
COMMENT 1999-01-28 Primoz Peterlin <primoz.peterlin@biofiz.mf.uni-lj.si>
COMMENT    A single BDF file conformant to ISO 10646-1 coded charset created.
COMMENT 2002-02-14 Primoz Peterlin <primoz.peterlin@biofiz.mf.uni-lj.si>
COMMENT    DOS-ish glyphs 0x00-0x2F moved to their proper ISO 10646-1 places.
COMMENT
STARTPROPERTIES 24
FONT_ASCENT 14
FONT_DESCENT 2
QUAD_WIDTH 16
X_HEIGHT 11
CAP_HEIGHT 11
FONTNAME_REGISTRY ""
FAMILY_NAME "legebla"
FOUNDRY "PfaEdit"
WEIGHT_NAME "Medium"
SETWIDTH_NAME "Normal"
SLANT "R"
ADD_STYLE_NAME ""
PIXEL_SIZE 16
POINT_SIZE 150
RESOLUTION_X 75
RESOLUTION_Y 75
RESOLUTION 75
SPACING "M"
AVERAGE_WIDTH 80
CHARSET_REGISTRY "ISO10646"
CHARSET_ENCODING "1"
CHARSET_COLLECTIONS "ASCII ISOLatin1Encoding ISO8859-2 ISO8859-5 ISO8859-7 ISO8859-9 ISO10646-1"
FULL_NAME "legebla medium"
COPYRIGHT "Created by Primoz Peterlin,Biofizika,543-7632 with PfaEdit 1.0 (http://pfaedit.sf.net)"
ENDPROPERTIES
CHARS 505
STARTCHAR space
ENCODING 32
SWIDTH 480 0
DWIDTH 8 0
BBX 1 1 7 -4
BITMAP
00
ENDCHAR
STARTCHAR exclam
ENCODING 33
SWIDTH 480 0
DWIDTH 8 0
BBX 1 10 3 0
BITMAP
80
80
80
80
80
80
80
00
80
80
ENDCHAR
STARTCHAR quotedbl
ENCODING 34
SWIDTH 480 0
DWIDTH 8 0
BBX 4 4 1 7
BITMAP
90
90
90
90
ENDCHAR
STARTCHAR numbersign
ENCODING 35
SWIDTH 480 0
DWIDTH 8 0
BBX 7 9 0 0
BITMAP
44
44
FE
44
44
44
FE
44
44
ENDCHAR
STARTCHAR dollar
ENCODING 36
SWIDTH 480 0
DWIDTH 8 0
BBX 7 13 0 -2
BITMAP
10
10
7C
92
90
80
7C
02
12
92
7C
10
10
ENDCHAR
STARTCHAR percent
ENCODING 37
SWIDTH 480 0
DWIDTH 8 0
BBX 7 9 0 0
BITMAP
60
F2
64
08
10
20
4C
9E
0C
ENDCHAR
STARTCHAR ampersand
ENCODING 38
SWIDTH 480 0
DWIDTH 8 0
BBX 7 10 0 0
BITMAP
30
48
48
48
32
4A
84
84
84
7A
ENDCHAR
STARTCHAR quotesingle
ENCODING 39
SWIDTH 480 0
DWIDTH 8 0
BBX 2 4 2 7
BITMAP
40
40
40
80
ENDCHAR
STARTCHAR parenleft
ENCODING 40
SWIDTH 480 0
DWIDTH 8 0
BBX 3 10 2 0
BITMAP
20
40
80
80
80
80
80
80
40
20
ENDCHAR
STARTCHAR parenright
ENCODING 41
SWIDTH 480 0
DWIDTH 8 0
BBX 3 10 2 0
BITMAP
80
40
20
20
20
20
20
20
40
80
ENDCHAR
STARTCHAR asterisk
ENCODING 42
SWIDTH 480 0
DWIDTH 8 0
BBX 7 7 0 1
BITMAP
10
54
38
FE
38
54
10
ENDCHAR
STARTCHAR plus
ENCODING 43
SWIDTH 480 0
DWIDTH 8 0
BBX 7 7 0 1
BITMAP
10
10
10
FE
10
10
10
ENDCHAR
STARTCHAR comma
ENCODING 44
SWIDTH 480 0
DWIDTH 8 0
BBX 2 4 2 -2
BITMAP
40
40
40
80
ENDCHAR
STARTCHAR hyphen
ENCODING 45
SWIDTH 480 0
DWIDTH 8 0
BBX 7 1 0 4
BITMAP
FE
ENDCHAR
STARTCHAR period
ENCODING 46
SWIDTH 480 0
DWIDTH 8 0
BBX 2 2 2 0
BITMAP
C0
C0
ENDCHAR
STARTCHAR slash
ENCODING 47
SWIDTH 480 0
DWIDTH 8 0
BBX 7 7 0 0
BITMAP
02
04
08
10
20
40
80
ENDCHAR
STARTCHAR zero
ENCODING 48
SWIDTH 480 0
DWIDTH 8 0
BBX 7 10 0 0
BITMAP
38
44
82
82
92
92
82
82
44
38
ENDCHAR
STARTCHAR one
ENCODING 49
SWIDTH 480 0
DWIDTH 8 0
BBX 5 10 1 0
BITMAP
20
60
A0
20
20
20
20
20
20
F8
ENDCHAR
STARTCHAR two
ENCODING 50
SWIDTH 480 0
DWIDTH 8 0
BBX 7 10 0 0
BITMAP
7C
82
02
02
04
08
10
20
40
FE
ENDCHAR
STARTCHAR three
ENCODING 51
SWIDTH 480 0
DWIDTH 8 0
BBX 7 10 0 0
BITMAP
7C
82
02
02
3C
02
02
02
82
7C
ENDCHAR
STARTCHAR four
ENCODING 52
SWIDTH 480 0
DWIDTH 8 0
BBX 7 10 0 0
BITMAP
04
0C
14
24
44
84
FE
04
04
04
ENDCHAR
STARTCHAR five
ENCODING 53
SWIDTH 480 0
DWIDTH 8 0
BBX 7 10 0 0
BITMAP
FE
80
80
80
FC
82
02
02
82
7C
ENDCHAR
STARTCHAR six
ENCODING 54
SWIDTH 480 0
DWIDTH 8 0
BBX 7 10 0 0
BITMAP
7C
80
80
80
FC
82
82
82
82
7C
ENDCHAR
STARTCHAR seven
ENCODING 55
SWIDTH 480 0
DWIDTH 8 0
BBX 7 10 0 0
BITMAP
FE
02
02
04
08
10
10
10
10
10
ENDCHAR
STARTCHAR eight
ENCODING 56
SWIDTH 480 0
DWIDTH 8 0
BBX 7 10 0 0
BITMAP
7C
82
82
44
7C
82
82
82
82
7C
ENDCHAR
STARTCHAR nine
ENCODING 57
SWIDTH 480 0
DWIDTH 8 0
BBX 7 10 0 0
BITMAP
7C
82
82
82
82
7E
02
02
02
7C
ENDCHAR
STARTCHAR colon
ENCODING 58
SWIDTH 480 0
DWIDTH 8 0
BBX 1 7 3 0
BITMAP
80
80
00
00
00
80
80
ENDCHAR
STARTCHAR semicolon
ENCODING 59
SWIDTH 480 0
DWIDTH 8 0
BBX 2 9 2 -2
BITMAP
40
40
00
00
00
40
40
40
80
ENDCHAR
STARTCHAR less
ENCODING 60
SWIDTH 480 0
DWIDTH 8 0
BBX 5 9 1 0
BITMAP
08
10
20
40
80
40
20
10
08
ENDCHAR
STARTCHAR equal
ENCODING 61
SWIDTH 480 0
DWIDTH 8 0
BBX 7 4 0 3
BITMAP
FE
00
00
FE
ENDCHAR
STARTCHAR greater
ENCODING 62
SWIDTH 480 0
DWIDTH 8 0
BBX 5 9 1 0
BITMAP
80
40
20
10
08
10
20
40
80
ENDCHAR
STARTCHAR question
ENCODING 63
SWIDTH 480 0
DWIDTH 8 0
BBX 7 10 0 0
BITMAP
7C
82
82
02
0C
10
10
00
10
10
ENDCHAR
STARTCHAR at
ENCODING 64
SWIDTH 480 0
DWIDTH 8 0
BBX 7 10 0 0
BITMAP
7C
82
82
BA
AA
AA
9C
80
80
7C
ENDCHAR
STARTCHAR A
ENCODING 65
SWIDTH 480 0
DWIDTH 8 0
BBX 7 10 0 0
BITMAP
38
44
82
82
82
FE
82
82
82
82
ENDCHAR
STARTCHAR B
ENCODING 66
SWIDTH 480 0
DWIDTH 8 0
BBX 7 10 0 0
BITMAP
FC
82
82
82
FC
82
82
82
82
FC
ENDCHAR
STARTCHAR C
ENCODING 67
SWIDTH 480 0
DWIDTH 8 0
BBX 7 10 0 0
BITMAP
7C
82
80
80
80
80
80
82
82
7C
ENDCHAR
STARTCHAR D
ENCODING 68
SWIDTH 480 0
DWIDTH 8 0
BBX 7 10 0 0
BITMAP
F8
84
82
82
82
82
82
82
84
F8
ENDCHAR
STARTCHAR E
ENCODING 69
SWIDTH 480 0
DWIDTH 8 0
BBX 7 10 0 0
BITMAP
FE
80
80
80
FC
80
80
80
80
FE
ENDCHAR
STARTCHAR F
ENCODING 70
SWIDTH 480 0
DWIDTH 8 0
BBX 7 10 0 0
BITMAP
FE
80
80
80
FC
80
80
80
80
80
ENDCHAR
STARTCHAR G
ENCODING 71
SWIDTH 480 0
DWIDTH 8 0
BBX 7 10 0 0
BITMAP
7C
82
80
80
9E
82
82
82
82
7E
ENDCHAR
STARTCHAR H
ENCODING 72
SWIDTH 480 0
DWIDTH 8 0
BBX 7 10 0 0
BITMAP
82
82
82
82
FE
82
82
82
82
82
ENDCHAR
STARTCHAR I
ENCODING 73
SWIDTH 480 0
DWIDTH 8 0
BBX 5 10 1 0
BITMAP
F8
20
20
20
20
20
20
20
20
F8
ENDCHAR
STARTCHAR J
ENCODING 74
SWIDTH 480 0
DWIDTH 8 0
BBX 7 10 0 0
BITMAP
3E
04
04
04
04
04
04
04
84
78
ENDCHAR
STARTCHAR K
ENCODING 75
SWIDTH 480 0
DWIDTH 8 0
BBX 7 10 0 0
BITMAP
84
88
90
A0
C0
A0
90
88
84
82
ENDCHAR
STARTCHAR L
ENCODING 76
SWIDTH 480 0
DWIDTH 8 0
BBX 7 10 0 0
BITMAP
80
80
80
80
80
80
80
80
80
FE
ENDCHAR
STARTCHAR M
ENCODING 77
SWIDTH 480 0
DWIDTH 8 0
BBX 7 10 0 0
BITMAP
82
C6
AA
92
92
82
82
82
82
82
ENDCHAR
STARTCHAR N
ENCODING 78
SWIDTH 480 0
DWIDTH 8 0
BBX 7 10 0 0
BITMAP
82
C2
A2
92
8A
86
82
82
82
82
ENDCHAR
STARTCHAR O
ENCODING 79
SWIDTH 480 0
DWIDTH 8 0
BBX 7 10 0 0
BITMAP
7C
82
82
82
82
82
82
82
82
7C
ENDCHAR
STARTCHAR P
ENCODING 80
SWIDTH 480 0
DWIDTH 8 0
BBX 7 10 0 0
BITMAP
FC
82
82
82
FC
80
80
80
80
80
ENDCHAR
STARTCHAR Q
ENCODING 81
SWIDTH 480 0
DWIDTH 8 0
BBX 7 12 0 -2
BITMAP
7C
82
82
82
82
82
92
92
92
7C
08
04
ENDCHAR
STARTCHAR R
ENCODING 82
SWIDTH 480 0
DWIDTH 8 0
BBX 7 10 0 0
BITMAP
FC
82
82
82
FC
84
82
82
82
82
ENDCHAR
STARTCHAR S
ENCODING 83
SWIDTH 480 0
DWIDTH 8 0
BBX 7 10 0 0
BITMAP
7C
82
80
60
30
0C
02
82
82
7C
ENDCHAR
STARTCHAR T
ENCODING 84
SWIDTH 480 0
DWIDTH 8 0
BBX 7 10 0 0
BITMAP
FE
10
10
10
10
10
10
10
10
10
ENDCHAR
STARTCHAR U
ENCODING 85
SWIDTH 480 0
DWIDTH 8 0
BBX 7 10 0 0
BITMAP
82
82
82
82
82
82
82
82
82
7C
ENDCHAR
STARTCHAR V
ENCODING 86
SWIDTH 480 0
DWIDTH 8 0
BBX 7 10 0 0
BITMAP
82
82
82
82
82
82
82
44
28
10
ENDCHAR
STARTCHAR W
ENCODING 87
SWIDTH 480 0
DWIDTH 8 0
BBX 7 10 0 0
BITMAP
82
82
82
82
82
92
92
92
AA
44
ENDCHAR
STARTCHAR X
ENCODING 88
SWIDTH 480 0
DWIDTH 8 0
BBX 7 10 0 0
BITMAP
82
82
44
28
10
28
44
82
82
82
ENDCHAR
STARTCHAR Y
ENCODING 89
SWIDTH 480 0
DWIDTH 8 0
BBX 7 10 0 0
BITMAP
82
82
82
44
28
10
10
10
10
10
ENDCHAR
STARTCHAR Z
ENCODING 90
SWIDTH 480 0
DWIDTH 8 0
BBX 7 10 0 0
BITMAP
FE
02
04
08
10
20
40
80
80
FE
ENDCHAR
STARTCHAR bracketleft
ENCODING 91
SWIDTH 480 0
DWIDTH 8 0
BBX 3 10 2 0
BITMAP
E0
80
80
80
80
80
80
80
80
E0
ENDCHAR
STARTCHAR backslash
ENCODING 92
SWIDTH 480 0
DWIDTH 8 0
BBX 7 7 0 0
BITMAP
80
40
20
10
08
04
02
ENDCHAR
STARTCHAR bracketright
ENCODING 93
SWIDTH 480 0
DWIDTH 8 0
BBX 3 10 2 0
BITMAP
E0
20
20
20
20
20
20
20
20
E0
ENDCHAR
STARTCHAR asciicircum
ENCODING 94
SWIDTH 480 0
DWIDTH 8 0
BBX 7 4 0 8
BITMAP
10
28
44
82
ENDCHAR
STARTCHAR underscore
ENCODING 95
SWIDTH 480 0
DWIDTH 8 0
BBX 7 1 0 -2
BITMAP
FE
ENDCHAR
STARTCHAR grave
ENCODING 96
SWIDTH 480 0
DWIDTH 8 0
BBX 2 4 2 7
BITMAP
80
80
80
40
ENDCHAR
STARTCHAR a
ENCODING 97
SWIDTH 480 0
DWIDTH 8 0
BBX 7 7 0 0
BITMAP
78
04
04
7C
84
84
7E
ENDCHAR
STARTCHAR b
ENCODING 98
SWIDTH 480 0
DWIDTH 8 0
BBX 7 10 0 0
BITMAP
80
80
80
BC
C2
82
82
82
82
FC
ENDCHAR
STARTCHAR c
ENCODING 99
SWIDTH 480 0
DWIDTH 8 0
BBX 7 7 0 0
BITMAP
7C
82
80
80
80
82
7C
ENDCHAR
STARTCHAR d
ENCODING 100
SWIDTH 480 0
DWIDTH 8 0
BBX 7 10 0 0
BITMAP
02
02
02
7A
86
82
82
82
82
7E
ENDCHAR
STARTCHAR e
ENCODING 101
SWIDTH 480 0
DWIDTH 8 0
BBX 7 7 0 0
BITMAP
7C
82
82
FE
80
80
7C
ENDCHAR
STARTCHAR f
ENCODING 102
SWIDTH 480 0
DWIDTH 8 0
BBX 6 10 0 0
BITMAP
1C
20
20
F8
20
20
20
20
20
20
ENDCHAR
STARTCHAR g
ENCODING 103
SWIDTH 480 0
DWIDTH 8 0
BBX 7 10 0 -3
BITMAP
7E
82
82
82
82
86
7A
02
02
7C
ENDCHAR
STARTCHAR h
ENCODING 104
SWIDTH 480 0
DWIDTH 8 0
BBX 7 10 0 0
BITMAP
80
80
80
BC
C2
82
82
82
82
82
ENDCHAR
STARTCHAR i
ENCODING 105
SWIDTH 480 0
DWIDTH 8 0
BBX 5 10 1 0
BITMAP
20
20
00
E0
20
20
20
20
20
F8
ENDCHAR
STARTCHAR j
ENCODING 106
SWIDTH 480 0
DWIDTH 8 0
BBX 4 13 1 -3
BITMAP
10
10
00
70
10
10
10
10
10
10
10
10
E0
ENDCHAR
STARTCHAR k
ENCODING 107
SWIDTH 480 0
DWIDTH 8 0
BBX 7 10 0 0
BITMAP
80
80
80
86
98
E0
90
88
84
82
ENDCHAR
STARTCHAR l
ENCODING 108
SWIDTH 480 0
DWIDTH 8 0
BBX 5 10 1 0
BITMAP
C0
40
40
40
40
40
40
40
40
38
ENDCHAR
STARTCHAR m
ENCODING 109
SWIDTH 480 0
DWIDTH 8 0
BBX 7 7 0 0
BITMAP
EC
92
92
92
92
92
92
ENDCHAR
STARTCHAR n
ENCODING 110
SWIDTH 480 0
DWIDTH 8 0
BBX 7 7 0 0
BITMAP
BC
C2
82
82
82
82
82
ENDCHAR
STARTCHAR o
ENCODING 111
SWIDTH 480 0
DWIDTH 8 0
BBX 7 7 0 0
BITMAP
7C
82
82
82
82
82
7C
ENDCHAR
STARTCHAR p
ENCODING 112
SWIDTH 480 0
DWIDTH 8 0
BBX 7 10 0 -3
BITMAP
BC
C2
82
82
82
C2
BC
80
80
80
ENDCHAR
STARTCHAR q
ENCODING 113
SWIDTH 480 0
DWIDTH 8 0
BBX 7 10 0 -3
BITMAP
7E
82
82
82
82
86
7A
02
02
02
ENDCHAR
STARTCHAR r
ENCODING 114
SWIDTH 480 0
DWIDTH 8 0
BBX 7 7 0 0
BITMAP
BC
C2
80
80
80
80
80
ENDCHAR
STARTCHAR s
ENCODING 115
SWIDTH 480 0
DWIDTH 8 0
BBX 7 7 0 0
BITMAP
7E
80
80
7C
02
02
FC
ENDCHAR
STARTCHAR t
ENCODING 116
SWIDTH 480 0
DWIDTH 8 0
BBX 6 9 0 0
BITMAP
20
20
FC
20
20
20
20
20
1C
ENDCHAR
STARTCHAR u
ENCODING 117
SWIDTH 480 0
DWIDTH 8 0
BBX 7 7 0 0
BITMAP
82
82
82
82
82
86
7A
ENDCHAR
STARTCHAR v
ENCODING 118
SWIDTH 480 0
DWIDTH 8 0
BBX 7 7 0 0
BITMAP
82
82
82
82
44
28
10
ENDCHAR
STARTCHAR w
ENCODING 119
SWIDTH 480 0
DWIDTH 8 0
BBX 7 7 0 0
BITMAP
82
82
82
92
92
92
6C
ENDCHAR
STARTCHAR x
ENCODING 120
SWIDTH 480 0
DWIDTH 8 0
BBX 7 7 0 0
BITMAP
82
44
28
10
28
44
82
ENDCHAR
STARTCHAR y
ENCODING 121
SWIDTH 480 0
DWIDTH 8 0
BBX 7 10 0 -3
BITMAP
82
82
82
82
82
86
7A
02
02
7C
ENDCHAR
STARTCHAR z
ENCODING 122
SWIDTH 480 0
DWIDTH 8 0
BBX 7 7 0 0
BITMAP
FE
04
08
10
20
40
FE
ENDCHAR
STARTCHAR braceleft
ENCODING 123
SWIDTH 480 0
DWIDTH 8 0
BBX 5 10 1 0
BITMAP
18
20
20
20
C0
20
20
20
20
18
ENDCHAR
STARTCHAR bar
ENCODING 124
SWIDTH 480 0
DWIDTH 8 0
BBX 1 14 3 -3
BITMAP
80
80
80
80
80
80
80
80
80
80
80
80
80
80
ENDCHAR
STARTCHAR braceright
ENCODING 125
SWIDTH 480 0
DWIDTH 8 0
BBX 5 10 1 0
BITMAP
C0
20
20
20
18
20
20
20
20
C0
ENDCHAR
STARTCHAR asciitilde
ENCODING 126
SWIDTH 480 0
DWIDTH 8 0
BBX 7 3 0 7
BITMAP
62
92
8C
ENDCHAR
STARTCHAR exclamdown
ENCODING 161
SWIDTH 480 0
DWIDTH 8 0
BBX 1 10 3 0
BITMAP
80
80
00
80
80
80
80
80
80
80
ENDCHAR
STARTCHAR cent
ENCODING 162
SWIDTH 480 0
DWIDTH 8 0
BBX 7 10 0 0
BITMAP
10
10
7C
82
80
80
82
7C
10
10
ENDCHAR
STARTCHAR sterling
ENCODING 163
SWIDTH 480 0
DWIDTH 8 0
BBX 7 10 0 0
BITMAP
38
44
40
40
F0
40
40
40
72
CC
ENDCHAR
STARTCHAR currency
ENCODING 164
SWIDTH 480 0
DWIDTH 8 0
BBX 6 8 0 0
BITMAP
84
78
84
84
84
84
78
84
ENDCHAR
STARTCHAR yen
ENCODING 165
SWIDTH 480 0
DWIDTH 8 0
BBX 7 10 0 0
BITMAP
82
82
44
28
10
7C
10
7C
10
10
ENDCHAR
STARTCHAR brokenbar
ENCODING 166
SWIDTH 480 0
DWIDTH 8 0
BBX 1 12 3 -1
BITMAP
80
80
80
80
80
00
00
80
80
80
80
80
ENDCHAR
STARTCHAR section
ENCODING 167
SWIDTH 480 0
DWIDTH 8 0
BBX 6 12 0 -1
BITMAP
78
84
40
30
48
84
84
48
30
08
84
78
ENDCHAR
STARTCHAR dieresis
ENCODING 168
SWIDTH 480 0
DWIDTH 8 0
BBX 5 2 1 9
BITMAP
88
88
ENDCHAR
STARTCHAR copyright
ENCODING 169
SWIDTH 480 0
DWIDTH 8 0
BBX 7 8 0 2
BITMAP
7C
82
9A
A2
A2
9A
82
7C
ENDCHAR
STARTCHAR ordfeminine
ENCODING 170
SWIDTH 480 0
DWIDTH 8 0
BBX 5 7 1 4
BITMAP
70
08
78
88
78
00
F8
ENDCHAR
STARTCHAR guillemotleft
ENCODING 171
SWIDTH 480 0
DWIDTH 8 0
BBX 6 5 0 2
BITMAP
24
48
90
48
24
ENDCHAR
STARTCHAR logicalnot
ENCODING 172
SWIDTH 480 0
DWIDTH 8 0
BBX 6 5 0 1
BITMAP
FC
04
04
04
04
ENDCHAR
STARTCHAR registered
ENCODING 174
SWIDTH 480 0
DWIDTH 8 0
BBX 7 8 0 2
BITMAP
7C
82
B2
AA
B2
AA
82
7C
ENDCHAR
STARTCHAR macron
ENCODING 175
SWIDTH 480 0
DWIDTH 8 0
BBX 8 1 0 10
BITMAP
FF
ENDCHAR
STARTCHAR degree
ENCODING 176
SWIDTH 480 0
DWIDTH 8 0
BBX 5 5 0 7
BITMAP
70
88
88
88
70
ENDCHAR
STARTCHAR plusminus
ENCODING 177
SWIDTH 480 0
DWIDTH 8 0
BBX 7 9 0 1
BITMAP
10
10
10
FE
10
10
10
00
FE
ENDCHAR
STARTCHAR twosuperior
ENCODING 178
SWIDTH 480 0
DWIDTH 8 0
BBX 4 6 0 5
BITMAP
60
90
10
20
40
F0
ENDCHAR
STARTCHAR threesuperior
ENCODING 179
SWIDTH 480 0
DWIDTH 8 0
BBX 4 6 0 5
BITMAP
E0
10
60
10
10
E0
ENDCHAR
STARTCHAR acute
ENCODING 180
SWIDTH 480 0
DWIDTH 8 0
BBX 3 3 2 8
BITMAP
20
40
80
ENDCHAR
STARTCHAR mu
ENCODING 181
SWIDTH 480 0
DWIDTH 8 0
BBX 7 10 0 -3
BITMAP
84
84
84
84
84
C4
BA
80
80
80
ENDCHAR
STARTCHAR paragraph
ENCODING 182
SWIDTH 480 0
DWIDTH 8 0
BBX 7 10 0 0
BITMAP
7E
F2
F2
F2
72
12
12
12
12
12
ENDCHAR
STARTCHAR periodcentered
ENCODING 183
SWIDTH 480 0
DWIDTH 8 0
BBX 2 2 2 3
BITMAP
C0
C0
ENDCHAR
STARTCHAR cedilla
ENCODING 184
SWIDTH 480 0
DWIDTH 8 0
BBX 4 3 1 -3
BITMAP
20
10
E0
ENDCHAR
STARTCHAR onesuperior
ENCODING 185
SWIDTH 480 0
DWIDTH 8 0
BBX 3 6 1 5
BITMAP
40
C0
40
40
40
E0
ENDCHAR
STARTCHAR ordmasculine
ENCODING 186
SWIDTH 480 0
DWIDTH 8 0
BBX 5 7 1 4
BITMAP
70
88
88
88
70
00
F8
ENDCHAR
STARTCHAR guillemotright
ENCODING 187
SWIDTH 480 0
DWIDTH 8 0
BBX 6 5 0 2
BITMAP
90
48
24
48
90
ENDCHAR
STARTCHAR onequarter
ENCODING 188
SWIDTH 480 0
DWIDTH 8 0
BBX 6 13 0 -2
BITMAP
80
80
80
84
88
10
20
44
8C
14
3C
04
04
ENDCHAR
STARTCHAR onehalf
ENCODING 189
SWIDTH 480 0
DWIDTH 8 0
BBX 6 13 0 -2
BITMAP
80
80
84
88
90
20
40
80
38
04
08
10
3C
ENDCHAR
STARTCHAR threequarters
ENCODING 190
SWIDTH 480 0
DWIDTH 8 0
BBX 7 13 0 -2
BITMAP
E0
10
60
12
E4
08
10
22
46
8A
1E
02
02
ENDCHAR
STARTCHAR questiondown
ENCODING 191
SWIDTH 480 0
DWIDTH 8 0
BBX 7 10 0 0
BITMAP
10
10
00
10
10
60
80
82
82
7C
ENDCHAR
STARTCHAR Agrave
ENCODING 192
SWIDTH 480 0
DWIDTH 8 0
BBX 7 12 0 0
BITMAP
30
0C
00
38
44
82
82
82
FE
82
82
82
ENDCHAR
STARTCHAR Aacute
ENCODING 193
SWIDTH 480 0
DWIDTH 8 0
BBX 7 12 0 0
BITMAP
18
60
00
38
44
82
82
82
FE
82
82
82
ENDCHAR
STARTCHAR Acircumflex
ENCODING 194
SWIDTH 480 0
DWIDTH 8 0
BBX 7 12 0 0
BITMAP
38
44
00
38
44
82
82
82
FE
82
82
82
ENDCHAR
STARTCHAR Atilde
ENCODING 195
SWIDTH 480 0
DWIDTH 8 0
BBX 7 12 0 0
BITMAP
64
98
00
38
44
82
82
82
FE
82
82
82
ENDCHAR
STARTCHAR Adieresis
ENCODING 196
SWIDTH 480 0
DWIDTH 8 0
BBX 7 12 0 0
BITMAP
44
44
00
38
44
82
82
82
FE
82
82
82
ENDCHAR
STARTCHAR Aring
ENCODING 197
SWIDTH 480 0
DWIDTH 8 0
BBX 7 12 0 0
BITMAP
38
44
44
38
44
82
82
82
FE
82
82
82
ENDCHAR
STARTCHAR AE
ENCODING 198
SWIDTH 480 0
DWIDTH 8 0
BBX 7 10 0 0
BITMAP
3E
48
88
88
FE
88
88
88
88
8E
ENDCHAR
STARTCHAR Ccedilla
ENCODING 199
SWIDTH 480 0
DWIDTH 8 0
BBX 7 13 0 -3
BITMAP
7C
82
80
80
80
80
80
82
82
7C
10
08
70
ENDCHAR
STARTCHAR Egrave
ENCODING 200
SWIDTH 480 0
DWIDTH 8 0
BBX 7 12 0 0
BITMAP
30
0C
00
FE
80
80
80
FC
80
80
80
FE
ENDCHAR
STARTCHAR Eacute
ENCODING 201
SWIDTH 480 0
DWIDTH 8 0
BBX 7 12 0 0
BITMAP
0C
30
00
FE
80
80
80
FC
80
80
80
FE
ENDCHAR
STARTCHAR Ecircumflex
ENCODING 202
SWIDTH 480 0
DWIDTH 8 0
BBX 7 12 0 0
BITMAP
38
44
00
FE
80
80
80
FC
80
80
80
FE
ENDCHAR
STARTCHAR Edieresis
ENCODING 203
SWIDTH 480 0
DWIDTH 8 0
BBX 7 12 0 0
BITMAP
44
44
00
FE
80
80
80
FC
80
80
80
FE
ENDCHAR
STARTCHAR Igrave
ENCODING 204
SWIDTH 480 0
DWIDTH 8 0
BBX 5 12 1 0
BITMAP
C0
30
00
F8
20
20
20
20
20
20
20
F8
ENDCHAR
STARTCHAR Iacute
ENCODING 205
SWIDTH 480 0
DWIDTH 8 0
BBX 5 12 1 0
BITMAP
18
60
00
F8
20
20
20
20
20
20
20
F8
ENDCHAR
STARTCHAR Icircumflex
ENCODING 206
SWIDTH 480 0
DWIDTH 8 0
BBX 5 12 1 0
BITMAP
70
88
00
F8
20
20
20
20
20
20
20
F8
ENDCHAR
STARTCHAR Idieresis
ENCODING 207
SWIDTH 480 0
DWIDTH 8 0
BBX 5 12 1 0
BITMAP
88
88
00
F8
20
20
20
20
20
20
20
F8
ENDCHAR
STARTCHAR Eth
ENCODING 208
SWIDTH 480 0
DWIDTH 8 0
BBX 7 10 0 0
BITMAP
78
44
42
42
F2
42
42
42
44
78
ENDCHAR
STARTCHAR Ntilde
ENCODING 209
SWIDTH 480 0
DWIDTH 8 0
BBX 7 12 0 0
BITMAP
64
98
00
82
C2
A2
92
8A
86
82
82
82
ENDCHAR
STARTCHAR Ograve
ENCODING 210
SWIDTH 480 0
DWIDTH 8 0
BBX 7 12 0 0
BITMAP
60
18
00
7C
82
82
82
82
82
82
82
7C
ENDCHAR
STARTCHAR Oacute
ENCODING 211
SWIDTH 480 0
DWIDTH 8 0
BBX 7 12 0 0
BITMAP
0C
30
00
7C
82
82
82
82
82
82
82
7C
ENDCHAR
STARTCHAR Ocircumflex
ENCODING 212
SWIDTH 480 0
DWIDTH 8 0
BBX 7 12 0 0
BITMAP
38
44
00
7C
82
82
82
82
82
82
82
7C
ENDCHAR
STARTCHAR Otilde
ENCODING 213
SWIDTH 480 0
DWIDTH 8 0
BBX 7 12 0 0
BITMAP
64
98
00
7C
82
82
82
82
82
82
82
7C
ENDCHAR
STARTCHAR Odieresis
ENCODING 214
SWIDTH 480 0
DWIDTH 8 0
BBX 7 12 0 0
BITMAP
44
44
00
7C
82
82
82
82
82
82
82
7C
ENDCHAR
STARTCHAR multiply
ENCODING 215
SWIDTH 480 0
DWIDTH 8 0
BBX 6 6 0 2
BITMAP
84
48
30
30
48
84
ENDCHAR
STARTCHAR Oslash
ENCODING 216
SWIDTH 480 0
DWIDTH 8 0
BBX 7 10 0 0
BITMAP
7C
82
86
8A
92
92
A2
C2
82
7C
ENDCHAR
STARTCHAR Ugrave
ENCODING 217
SWIDTH 480 0
DWIDTH 8 0
BBX 7 12 0 0
BITMAP
60
18
00
82
82
82
82
82
82
82
82
7C
ENDCHAR
STARTCHAR Uacute
ENCODING 218
SWIDTH 480 0
DWIDTH 8 0
BBX 7 12 0 0
BITMAP
0C
30
00
82
82
82
82
82
82
82
82
7C
ENDCHAR
STARTCHAR Ucircumflex
ENCODING 219
SWIDTH 480 0
DWIDTH 8 0
BBX 7 12 0 0
BITMAP
38
44
00
82
82
82
82
82
82
82
82
7C
ENDCHAR
STARTCHAR Udieresis
ENCODING 220
SWIDTH 480 0
DWIDTH 8 0
BBX 7 12 0 0
BITMAP
44
44
00
82
82
82
82
82
82
82
82
7C
ENDCHAR
STARTCHAR Yacute
ENCODING 221
SWIDTH 480 0
DWIDTH 8 0
BBX 7 12 0 0
BITMAP
0C
30
00
82
82
44
28
10
10
10
10
10
ENDCHAR
STARTCHAR Thorn
ENCODING 222
SWIDTH 480 0
DWIDTH 8 0
BBX 7 10 0 0
BITMAP
80
80
FC
82
82
82
82
FC
80
80
ENDCHAR
STARTCHAR germandbls
ENCODING 223
SWIDTH 480 0
DWIDTH 8 0
BBX 7 12 0 -2
BITMAP
38
44
84
84
98
84
82
82
82
9C
80
80
ENDCHAR
STARTCHAR agrave
ENCODING 224
SWIDTH 480 0
DWIDTH 8 0
BBX 7 11 0 0
BITMAP
20
10
08
00
7C
02
02
7E
82
82
7E
ENDCHAR
STARTCHAR aacute
ENCODING 225
SWIDTH 480 0
DWIDTH 8 0
BBX 7 11 0 0
BITMAP
08
10
20
00
7C
02
02
7E
82
82
7E
ENDCHAR
STARTCHAR acircumflex
ENCODING 226
SWIDTH 480 0
DWIDTH 8 0
BBX 7 11 0 0
BITMAP
10
28
44
00
7C
02
02
7E
82
82
7E
ENDCHAR
STARTCHAR atilde
ENCODING 227
SWIDTH 480 0
DWIDTH 8 0
BBX 7 11 0 0
BITMAP
32
4C
00
00
7C
02
02
7E
82
82
7E
ENDCHAR
STARTCHAR adieresis
ENCODING 228
SWIDTH 480 0
DWIDTH 8 0
BBX 7 10 0 0
BITMAP
44
44
00
7C
02
02
7E
82
82
7E
ENDCHAR
STARTCHAR aring
ENCODING 229
SWIDTH 480 0
DWIDTH 8 0
BBX 7 11 0 0
BITMAP
18
24
18
00
7C
02
02
7E
82
82
7E
ENDCHAR
STARTCHAR ae
ENCODING 230
SWIDTH 480 0
DWIDTH 8 0
BBX 7 7 0 0
BITMAP
6C
92
12
7E
90
90
6E
ENDCHAR
STARTCHAR ccedilla
ENCODING 231
SWIDTH 480 0
DWIDTH 8 0
BBX 7 10 0 -3
BITMAP
7C
82
80
80
80
82
7C
10
08
70
ENDCHAR
STARTCHAR egrave
ENCODING 232
SWIDTH 480 0
DWIDTH 8 0
BBX 7 11 0 0
BITMAP
20
10
08
00
7C
82
82
FE
80
80
7E
ENDCHAR
STARTCHAR eacute
ENCODING 233
SWIDTH 480 0
DWIDTH 8 0
BBX 7 11 0 0
BITMAP
08
10
20
00
7C
82
82
FE
80
80
7E
ENDCHAR
STARTCHAR ecircumflex
ENCODING 234
SWIDTH 480 0
DWIDTH 8 0
BBX 7 11 0 0
BITMAP
10
28
44
00
7C
82
82
FE
80
80
7E
ENDCHAR
STARTCHAR edieresis
ENCODING 235
SWIDTH 480 0
DWIDTH 8 0
BBX 7 10 0 0
BITMAP
44
44
00
7C
82
82
FE
80
80
7E
ENDCHAR
STARTCHAR igrave
ENCODING 236
SWIDTH 480 0
DWIDTH 8 0
BBX 5 11 1 0
BITMAP
80
40
20
00
E0
20
20
20
20
20
F8
ENDCHAR
STARTCHAR iacute
ENCODING 237
SWIDTH 480 0
DWIDTH 8 0
BBX 5 11 1 0
BITMAP
10
20
40
00
E0
20
20
20
20
20
F8
ENDCHAR
STARTCHAR icircumflex
ENCODING 238
SWIDTH 480 0
DWIDTH 8 0
BBX 5 11 1 0
BITMAP
20
50
88
00
E0
20
20
20
20
20
F8
ENDCHAR
STARTCHAR idieresis
ENCODING 239
SWIDTH 480 0
DWIDTH 8 0
BBX 5 10 1 0
BITMAP
90
90
00
E0
20
20
20
20
20
F8
ENDCHAR
STARTCHAR eth
ENCODING 240
SWIDTH 480 0
DWIDTH 8 0
BBX 7 10 0 0
BITMAP
28
10
28
04
7C
82
82
82
82
7C
ENDCHAR
STARTCHAR ntilde
ENCODING 241
SWIDTH 480 0
DWIDTH 8 0
BBX 7 11 0 0
BITMAP
64
98
00
00
BC
C2
82
82
82
82
82
ENDCHAR
STARTCHAR ograve
ENCODING 242
SWIDTH 480 0
DWIDTH 8 0
BBX 7 11 0 0
BITMAP
20
10
08
00
7C
82
82
82
82
82
7C
ENDCHAR
STARTCHAR oacute
ENCODING 243
SWIDTH 480 0
DWIDTH 8 0
BBX 7 11 0 0
BITMAP
08
10
20
00
7C
82
82
82
82
82
7C
ENDCHAR
STARTCHAR ocircumflex
ENCODING 244
SWIDTH 480 0
DWIDTH 8 0
BBX 7 11 0 0
BITMAP
10
28
44
00
7C
82
82
82
82
82
7C
ENDCHAR
STARTCHAR otilde
ENCODING 245
SWIDTH 480 0
DWIDTH 8 0
BBX 7 11 0 0
BITMAP
64
98
00
00
7C
82
82
82
82
82
7C
ENDCHAR
STARTCHAR odieresis
ENCODING 246
SWIDTH 480 0
DWIDTH 8 0
BBX 7 10 0 0
BITMAP
44
44
00
7C
82
82
82
82
82
7C
ENDCHAR
STARTCHAR divide
ENCODING 247
SWIDTH 480 0
DWIDTH 8 0
BBX 7 7 0 1
BITMAP
10
10
00
FE
00
10
10
ENDCHAR
STARTCHAR oslash
ENCODING 248
SWIDTH 480 0
DWIDTH 8 0
BBX 7 7 0 0
BITMAP
7C
86
8A
92
A2
C2
7C
ENDCHAR
STARTCHAR ugrave
ENCODING 249
SWIDTH 480 0
DWIDTH 8 0
BBX 7 11 0 0
BITMAP
20
10
08
00
82
82
82
82
82
86
7A
ENDCHAR
STARTCHAR uacute
ENCODING 250
SWIDTH 480 0
DWIDTH 8 0
BBX 7 11 0 0
BITMAP
08
10
20
00
82
82
82
82
82
86
7A
ENDCHAR
STARTCHAR ucircumflex
ENCODING 251
SWIDTH 480 0
DWIDTH 8 0
BBX 7 11 0 0
BITMAP
10
28
44
00
82
82
82
82
82
86
7A
ENDCHAR
STARTCHAR udieresis
ENCODING 252
SWIDTH 480 0
DWIDTH 8 0
BBX 7 10 0 0
BITMAP
44
44
00
82
82
82
82
82
86
7A
ENDCHAR
STARTCHAR yacute
ENCODING 253
SWIDTH 480 0
DWIDTH 8 0
BBX 7 14 0 -3
BITMAP
08
10
20
00
82
82
82
82
82
86
7A
02
02
7C
ENDCHAR
STARTCHAR thorn
ENCODING 254
SWIDTH 480 0
DWIDTH 8 0
BBX 7 13 0 -3
BITMAP
80
80
80
BC
C2
82
82
82
82
FC
80
80
80
ENDCHAR
STARTCHAR ydieresis
ENCODING 255
SWIDTH 480 0
DWIDTH 8 0
BBX 7 13 0 -3
BITMAP
44
44
00
82
82
82
82
82
86
7A
02
02
7C
ENDCHAR
STARTCHAR Abreve
ENCODING 258
SWIDTH 480 0
DWIDTH 8 0
BBX 7 12 0 0
BITMAP
44
38
00
38
44
82
82
82
FE
82
82
82
ENDCHAR
STARTCHAR abreve
ENCODING 259
SWIDTH 480 0
DWIDTH 8 0
BBX 7 11 0 0
BITMAP
44
28
10
00
7C
02
02
7E
82
82
7E
ENDCHAR
STARTCHAR Aogonek
ENCODING 260
SWIDTH 480 0
DWIDTH 8 0
BBX 7 13 0 -3
BITMAP
38
44
82
82
82
FE
82
82
82
82
0C
10
0E
ENDCHAR
STARTCHAR aogonek
ENCODING 261
SWIDTH 480 0
DWIDTH 8 0
BBX 7 10 0 -3
BITMAP
7C
02
02
7E
82
82
7E
10
20
1C
ENDCHAR
STARTCHAR Cacute
ENCODING 262
SWIDTH 480 0
DWIDTH 8 0
BBX 7 12 0 0
BITMAP
0C
30
00
7C
82
80
80
80
80
80
82
7C
ENDCHAR
STARTCHAR cacute
ENCODING 263
SWIDTH 480 0
DWIDTH 8 0
BBX 7 11 0 0
BITMAP
08
10
20
00
7C
82
80
80
80
82
7C
ENDCHAR
STARTCHAR Ccaron
ENCODING 268
SWIDTH 480 0
DWIDTH 8 0
BBX 7 12 0 0
BITMAP
44
38
00
7C
82
80
80
80
80
80
82
7C
ENDCHAR
STARTCHAR ccaron
ENCODING 269
SWIDTH 480 0
DWIDTH 8 0
BBX 7 11 0 0
BITMAP
44
28
10
00
7C
82
80
80
80
82
7C
ENDCHAR
STARTCHAR Dcaron
ENCODING 270
SWIDTH 480 0
DWIDTH 8 0
BBX 7 12 0 0
BITMAP
44
38
00
F8
84
82
82
82
82
82
84
F8
ENDCHAR
STARTCHAR dcaron
ENCODING 271
SWIDTH 480 0
DWIDTH 8 0
BBX 7 10 0 0
BITMAP
0A
0A
0A
6C
98
88
88
88
88
78
ENDCHAR
STARTCHAR Dcroat
ENCODING 272
SWIDTH 480 0
DWIDTH 8 0
BBX 7 10 0 0
BITMAP
78
44
42
42
F2
42
42
42
44
78
ENDCHAR
STARTCHAR dcroat
ENCODING 273
SWIDTH 480 0
DWIDTH 8 0
BBX 7 10 0 0
BITMAP
08
3E
08
68
98
88
88
88
88
78
ENDCHAR
STARTCHAR Eogonek
ENCODING 280
SWIDTH 480 0
DWIDTH 8 0
BBX 7 13 0 -3
BITMAP
FE
80
80
80
FC
80
80
80
80
FE
10
20
1C
ENDCHAR
STARTCHAR eogonek
ENCODING 281
SWIDTH 480 0
DWIDTH 8 0
BBX 7 10 0 -3
BITMAP
7C
82
82
FE
80
80
7E
10
20
1C
ENDCHAR
STARTCHAR Ecaron
ENCODING 282
SWIDTH 480 0
DWIDTH 8 0
BBX 7 12 0 0
BITMAP
44
38
00
FE
80
80
80
FC
80
80
80
FE
ENDCHAR
STARTCHAR ecaron
ENCODING 283
SWIDTH 480 0
DWIDTH 8 0
BBX 7 11 0 0
BITMAP
44
28
10
00
7C
82
82
FE
80
80
7E
ENDCHAR
STARTCHAR Gbreve
ENCODING 286
SWIDTH 480 0
DWIDTH 8 0
BBX 7 12 0 0
BITMAP
44
38
00
7C
82
80
80
9E
82
82
82
7E
ENDCHAR
STARTCHAR gbreve
ENCODING 287
SWIDTH 480 0
DWIDTH 8 0
BBX 7 13 0 -3
BITMAP
44
38
00
7E
82
82
82
82
86
7A
02
02
7C
ENDCHAR
STARTCHAR Idotaccent
ENCODING 304
SWIDTH 480 0
DWIDTH 8 0
BBX 5 12 1 0
BITMAP
20
20
00
F8
20
20
20
20
20
20
20
F8
ENDCHAR
STARTCHAR dotlessi
ENCODING 305
SWIDTH 480 0
DWIDTH 8 0
BBX 5 7 1 0
BITMAP
E0
20
20
20
20
20
F8
ENDCHAR
STARTCHAR Lacute
ENCODING 313
SWIDTH 480 0
DWIDTH 8 0
BBX 7 12 0 0
BITMAP
0C
30
00
80
80
80
80
80
80
80
80
FE
ENDCHAR
STARTCHAR lacute
ENCODING 314
SWIDTH 480 0
DWIDTH 8 0
BBX 5 12 1 0
BITMAP
18
60
00
C0
40
40
40
40
40
40
40
38
ENDCHAR
STARTCHAR Lcaron
ENCODING 317
SWIDTH 480 0
DWIDTH 8 0
BBX 7 10 0 0
BITMAP
88
88
88
90
80
80
80
80
80
FE
ENDCHAR
STARTCHAR lcaron
ENCODING 318
SWIDTH 480 0
DWIDTH 8 0
BBX 6 10 1 0
BITMAP
C4
44
44
48
40
40
40
40
40
38
ENDCHAR
STARTCHAR Lslash
ENCODING 321
SWIDTH 480 0
DWIDTH 8 0
BBX 7 10 0 0
BITMAP
40
40
50
60
40
C0
40
40
40
7E
ENDCHAR
STARTCHAR lslash
ENCODING 322
SWIDTH 480 0
DWIDTH 8 0
BBX 6 10 0 0
BITMAP
60
20
28
30
20
60
A0
20
20
1C
ENDCHAR
STARTCHAR Nacute
ENCODING 323
SWIDTH 480 0
DWIDTH 8 0
BBX 7 12 0 0
BITMAP
0C
30
00
82
C2
A2
92
8A
86
82
82
82
ENDCHAR
STARTCHAR nacute
ENCODING 324
SWIDTH 480 0
DWIDTH 8 0
BBX 7 11 0 0
BITMAP
08
10
20
00
BC
C2
82
82
82
82
82
ENDCHAR
STARTCHAR Ncaron
ENCODING 327
SWIDTH 480 0
DWIDTH 8 0
BBX 7 12 0 0
BITMAP
44
38
00
82
C2
A2
92
8A
86
82
82
82
ENDCHAR
STARTCHAR ncaron
ENCODING 328
SWIDTH 480 0
DWIDTH 8 0
BBX 7 11 0 0
BITMAP
44
28
10
00
BC
C2
82
82
82
82
82
ENDCHAR
STARTCHAR Ohungarumlaut
ENCODING 336
SWIDTH 480 0
DWIDTH 8 0
BBX 7 12 0 0
BITMAP
22
44
00
7C
82
82
82
82
82
82
82
7C
ENDCHAR
STARTCHAR ohungarumlaut
ENCODING 337
SWIDTH 480 0
DWIDTH 8 0
BBX 7 11 0 0
BITMAP
22
44
88
00
7C
82
82
82
82
82
7C
ENDCHAR
STARTCHAR Racute
ENCODING 340
SWIDTH 480 0
DWIDTH 8 0
BBX 7 12 0 0
BITMAP
18
60
00
FC
82
82
82
FC
84
82
82
82
ENDCHAR
STARTCHAR racute
ENCODING 341
SWIDTH 480 0
DWIDTH 8 0
BBX 7 11 0 0
BITMAP
08
10
20
00
BC
C2
80
80
80
80
80
ENDCHAR
STARTCHAR Rcaron
ENCODING 344
SWIDTH 480 0
DWIDTH 8 0
BBX 7 12 0 0
BITMAP
44
38
00
FC
82
82
82
FC
84
82
82
82
ENDCHAR
STARTCHAR rcaron
ENCODING 345
SWIDTH 480 0
DWIDTH 8 0
BBX 7 11 0 0
BITMAP
44
28
10
00
BC
C2
80
80
80
80
80
ENDCHAR
STARTCHAR Sacute
ENCODING 346
SWIDTH 480 0
DWIDTH 8 0
BBX 7 12 0 0
BITMAP
0C
30
00
7C
82
80
60
30
0C
82
82
7C
ENDCHAR
STARTCHAR sacute
ENCODING 347
SWIDTH 480 0
DWIDTH 8 0
BBX 7 11 0 0
BITMAP
08
10
20
00
7E
80
80
7C
02
02
FC
ENDCHAR
STARTCHAR Scedilla
ENCODING 350
SWIDTH 480 0
DWIDTH 8 0
BBX 7 13 0 -3
BITMAP
7C
82
80
60
30
0C
02
82
82
7C
10
08
70
ENDCHAR
STARTCHAR scedilla
ENCODING 351
SWIDTH 480 0
DWIDTH 8 0
BBX 7 10 0 -3
BITMAP
7E
80
80
7C
02
02
FC
10
08
70
ENDCHAR
STARTCHAR Scaron
ENCODING 352
SWIDTH 480 0
DWIDTH 8 0
BBX 7 12 0 0
BITMAP
44
38
00
7C
82
80
60
30
0C
82
82
7C
ENDCHAR
STARTCHAR scaron
ENCODING 353
SWIDTH 480 0
DWIDTH 8 0
BBX 7 11 0 0
BITMAP
44
28
10
00
7E
80
80
7C
02
02
FC
ENDCHAR
STARTCHAR Tcaron
ENCODING 356
SWIDTH 480 0
DWIDTH 8 0
BBX 7 12 0 0
BITMAP
44
38
00
FE
10
10
10
10
10
10
10
10
ENDCHAR
STARTCHAR tcaron
ENCODING 357
SWIDTH 480 0
DWIDTH 8 0
BBX 7 10 0 0
BITMAP
02
22
22
F4
20
20
20
20
20
1C
ENDCHAR
STARTCHAR Uring
ENCODING 366
SWIDTH 480 0
DWIDTH 8 0
BBX 7 12 0 0
BITMAP
30
48
30
82
82
82
82
82
82
82
82
7C
ENDCHAR
STARTCHAR uring
ENCODING 367
SWIDTH 480 0
DWIDTH 8 0
BBX 7 11 0 0
BITMAP
30
48
30
00
82
82
82
82
82
86
7A
ENDCHAR
STARTCHAR Uhungarumlaut
ENCODING 368
SWIDTH 480 0
DWIDTH 8 0
BBX 7 12 0 0
BITMAP
22
44
00
82
82
82
82
82
82
82
82
7C
ENDCHAR
STARTCHAR uhungarumlaut
ENCODING 369
SWIDTH 480 0
DWIDTH 8 0
BBX 7 11 0 0
BITMAP
22
44
88
00
82
82
82
82
82
86
7A
ENDCHAR
STARTCHAR Zacute
ENCODING 377
SWIDTH 480 0
DWIDTH 8 0
BBX 7 12 0 0
BITMAP
0C
30
00
FE
02
04
08
10
20
40
80
FE
ENDCHAR
STARTCHAR zacute
ENCODING 378
SWIDTH 480 0
DWIDTH 8 0
BBX 7 11 0 0
BITMAP
08
10
20
00
FE
04
08
10
20
40
FE
ENDCHAR
STARTCHAR Zdotaccent
ENCODING 379
SWIDTH 480 0
DWIDTH 8 0
BBX 7 12 0 0
BITMAP
10
10
00
FE
02
04
08
10
20
40
80
FE
ENDCHAR
STARTCHAR zdotaccent
ENCODING 380
SWIDTH 480 0
DWIDTH 8 0
BBX 7 11 0 0
BITMAP
10
10
00
00
FE
04
08
10
20
40
FE
ENDCHAR
STARTCHAR Zcaron
ENCODING 381
SWIDTH 480 0
DWIDTH 8 0
BBX 7 12 0 0
BITMAP
44
38
00
FE
02
04
08
10
20
40
80
FE
ENDCHAR
STARTCHAR zcaron
ENCODING 382
SWIDTH 480 0
DWIDTH 8 0
BBX 7 11 0 0
BITMAP
44
28
10
00
FE
04
08
10
20
40
FE
ENDCHAR
STARTCHAR florin
ENCODING 402
SWIDTH 480 0
DWIDTH 8 0
BBX 7 13 0 -3
BITMAP
0C
12
10
10
10
7C
10
10
10
10
10
90
60
ENDCHAR
STARTCHAR Tcommaaccent
ENCODING 538
SWIDTH 480 0
DWIDTH 8 0
BBX 8 13 0 -3
BITMAP
FF
10
10
10
10
10
10
10
10
10
08
04
38
ENDCHAR
STARTCHAR tcommaaccent
ENCODING 539
SWIDTH 480 0
DWIDTH 8 0
BBX 6 12 0 -3
BITMAP
20
20
FC
20
20
20
20
20
1C
10
08
70
ENDCHAR
STARTCHAR caron
ENCODING 711
SWIDTH 480 0
DWIDTH 8 0
BBX 4 2 1 9
BITMAP
90
60
ENDCHAR
STARTCHAR breve
ENCODING 728
SWIDTH 480 0
DWIDTH 8 0
BBX 6 2 0 9
BITMAP
84
78
ENDCHAR
STARTCHAR dotaccent
ENCODING 729
SWIDTH 480 0
DWIDTH 8 0
BBX 1 2 3 9
BITMAP
80
80
ENDCHAR
STARTCHAR ogonek
ENCODING 731
SWIDTH 480 0
DWIDTH 8 0
BBX 4 3 1 -3
BITMAP
40
80
70
ENDCHAR
STARTCHAR hungarumlaut
ENCODING 733
SWIDTH 480 0
DWIDTH 8 0
BBX 6 3 0 8
BITMAP
24
48
90
ENDCHAR
STARTCHAR tonos
ENCODING 900
SWIDTH 480 0
DWIDTH 8 0
BBX 1 3 3 8
BITMAP
80
80
80
ENDCHAR
STARTCHAR dieresistonos
ENCODING 901
SWIDTH 480 0
DWIDTH 8 0
BBX 7 3 0 8
BITMAP
10
10
D6
ENDCHAR
STARTCHAR Alphatonos
ENCODING 902
SWIDTH 480 0
DWIDTH 8 0
BBX 7 12 0 0
BITMAP
80
80
38
44
82
82
82
FE
82
82
82
82
ENDCHAR
STARTCHAR Epsilontonos
ENCODING 904
SWIDTH 480 0
DWIDTH 8 0
BBX 7 12 0 0
BITMAP
80
80
7E
40
40
40
7C
40
40
40
40
7E
ENDCHAR
STARTCHAR Etatonos
ENCODING 905
SWIDTH 480 0
DWIDTH 8 0
BBX 7 12 0 0
BITMAP
80
80
42
42
42
42
7E
42
42
42
42
42
ENDCHAR
STARTCHAR Iotatonos
ENCODING 906
SWIDTH 480 0
DWIDTH 8 0
BBX 6 12 0 0
BITMAP
80
80
7C
10
10
10
10
10
10
10
10
7C
ENDCHAR
STARTCHAR Omicrontonos
ENCODING 908
SWIDTH 480 0
DWIDTH 8 0
BBX 7 12 0 0
BITMAP
80
80
3C
42
42
42
42
42
42
42
42
3C
ENDCHAR
STARTCHAR Upsilontonos
ENCODING 910
SWIDTH 480 0
DWIDTH 8 0
BBX 7 12 0 0
BITMAP
80
80
3C
42
42
42
42
42
42
42
42
3C
ENDCHAR
STARTCHAR Omegatonos
ENCODING 911
SWIDTH 480 0
DWIDTH 8 0
BBX 7 12 0 0
BITMAP
80
80
38
44
82
82
82
82
82
44
28
C6
ENDCHAR
STARTCHAR iotadieresistonos
ENCODING 912
SWIDTH 480 0
DWIDTH 8 0
BBX 7 11 0 0
BITMAP
10
10
D6
00
30
10
10
10
10
10
1C
ENDCHAR
STARTCHAR Alpha
ENCODING 913
SWIDTH 480 0
DWIDTH 8 0
BBX 7 10 0 0
BITMAP
38
44
82
82
82
FE
82
82
82
82
ENDCHAR
STARTCHAR Beta
ENCODING 914
SWIDTH 480 0
DWIDTH 8 0
BBX 7 10 0 0
BITMAP
FC
82
82
82
FC
82
82
82
82
FC
ENDCHAR
STARTCHAR Gamma
ENCODING 915
SWIDTH 480 0
DWIDTH 8 0
BBX 7 10 0 0
BITMAP
FE
80
80
80
80
80
80
80
80
80
ENDCHAR
STARTCHAR Delta
ENCODING 916
SWIDTH 480 0
DWIDTH 8 0
BBX 7 10 0 0
BITMAP
10
28
28
44
44
44
82
82
82
FE
ENDCHAR
STARTCHAR Epsilon
ENCODING 917
SWIDTH 480 0
DWIDTH 8 0
BBX 7 10 0 0
BITMAP
FE
80
80
80
FC
80
80
80
80
FE
ENDCHAR
STARTCHAR Zeta
ENCODING 918
SWIDTH 480 0
DWIDTH 8 0
BBX 7 10 0 0
BITMAP
FE
02
04
08
10
20
40
80
80
FE
ENDCHAR
STARTCHAR Eta
ENCODING 919
SWIDTH 480 0
DWIDTH 8 0
BBX 7 10 0 0
BITMAP
82
82
82
82
FE
82
82
82
82
82
ENDCHAR
STARTCHAR Theta
ENCODING 920
SWIDTH 480 0
DWIDTH 8 0
BBX 7 10 0 0
BITMAP
38
44
82
82
FE
82
82
82
44
38
ENDCHAR
STARTCHAR Iota
ENCODING 921
SWIDTH 480 0
DWIDTH 8 0
BBX 5 10 1 0
BITMAP
F8
20
20
20
20
20
20
20
20
F8
ENDCHAR
STARTCHAR Kappa
ENCODING 922
SWIDTH 480 0
DWIDTH 8 0
BBX 7 10 0 0
BITMAP
84
88
90
A0
C0
A0
90
88
84
82
ENDCHAR
STARTCHAR Lambda
ENCODING 923
SWIDTH 480 0
DWIDTH 8 0
BBX 7 10 0 0
BITMAP
10
28
28
44
44
44
82
82
82
82
ENDCHAR
STARTCHAR Mu
ENCODING 924
SWIDTH 480 0
DWIDTH 8 0
BBX 7 10 0 0
BITMAP
82
C6
AA
92
92
82
82
82
82
82
ENDCHAR
STARTCHAR Nu
ENCODING 925
SWIDTH 480 0
DWIDTH 8 0
BBX 7 10 0 0
BITMAP
82
C2
A2
92
8A
86
82
82
82
82
ENDCHAR
STARTCHAR Xi
ENCODING 926
SWIDTH 480 0
DWIDTH 8 0
BBX 7 10 0 0
BITMAP
FE
00
00
00
7C
00
00
00
00
FE
ENDCHAR
STARTCHAR Omicron
ENCODING 927
SWIDTH 480 0
DWIDTH 8 0
BBX 7 10 0 0
BITMAP
7C
82
82
82
82
82
82
82
82
7C
ENDCHAR
STARTCHAR Pi
ENCODING 928
SWIDTH 480 0
DWIDTH 8 0
BBX 7 10 0 0
BITMAP
FE
82
82
82
82
82
82
82
82
82
ENDCHAR
STARTCHAR Rho
ENCODING 929
SWIDTH 480 0
DWIDTH 8 0
BBX 7 10 0 0
BITMAP
FC
82
82
82
FC
80
80
80
80
80
ENDCHAR
STARTCHAR Sigma
ENCODING 931
SWIDTH 480 0
DWIDTH 8 0
BBX 7 10 0 0
BITMAP
FE
40
20
10
08
10
20
40
80
FE
ENDCHAR
STARTCHAR Tau
ENCODING 932
SWIDTH 480 0
DWIDTH 8 0
BBX 7 10 0 0
BITMAP
FE
10
10
10
10
10
10
10
10
10
ENDCHAR
STARTCHAR Upsilon
ENCODING 933
SWIDTH 480 0
DWIDTH 8 0
BBX 7 10 0 0
BITMAP
82
82
82
44
28
10
10
10
10
10
ENDCHAR
STARTCHAR Phi
ENCODING 934
SWIDTH 480 0
DWIDTH 8 0
BBX 7 10 0 0
BITMAP
10
7C
92
92
92
92
92
92
7C
10
ENDCHAR
STARTCHAR Chi
ENCODING 935
SWIDTH 480 0
DWIDTH 8 0
BBX 7 10 0 0
BITMAP
82
82
44
28
10
28
44
82
82
82
ENDCHAR
STARTCHAR Psi
ENCODING 936
SWIDTH 480 0
DWIDTH 8 0
BBX 7 10 0 0
BITMAP
10
92
54
54
54
54
38
10
10
10
ENDCHAR
STARTCHAR Omega
ENCODING 937
SWIDTH 480 0
DWIDTH 8 0
BBX 7 10 0 0
BITMAP
38
44
82
82
82
82
82
44
28
EE
ENDCHAR
STARTCHAR Iotadieresis
ENCODING 938
SWIDTH 480 0
DWIDTH 8 0
BBX 5 12 1 0
BITMAP
88
88
00
F8
20
20
20
20
20
20
20
F8
ENDCHAR
STARTCHAR Upsilondieresis
ENCODING 939
SWIDTH 480 0
DWIDTH 8 0
BBX 7 12 0 0
BITMAP
44
44
00
82
44
44
44
28
10
10
10
10
ENDCHAR
STARTCHAR alphatonos
ENCODING 940
SWIDTH 480 0
DWIDTH 8 0
BBX 7 11 0 0
BITMAP
10
10
10
00
74
88
88
88
88
88
76
ENDCHAR
STARTCHAR epsilontonos
ENCODING 941
SWIDTH 480 0
DWIDTH 8 0
BBX 7 11 0 0
BITMAP
10
10
10
00
7C
82
80
78
80
82
7C
ENDCHAR
STARTCHAR etatonos
ENCODING 942
SWIDTH 480 0
DWIDTH 8 0
BBX 7 14 0 -3
BITMAP
10
10
10
00
BC
42
42
42
42
42
42
02
02
02
ENDCHAR
STARTCHAR iotatonos
ENCODING 943
SWIDTH 480 0
DWIDTH 8 0
BBX 4 11 2 0
BITMAP
40
40
40
00
C0
40
40
40
40
40
70
ENDCHAR
STARTCHAR upsilondieresistonos
ENCODING 944
SWIDTH 480 0
DWIDTH 8 0
BBX 7 11 0 0
BITMAP
10
10
D6
00
82
82
82
82
82
82
7C
ENDCHAR
STARTCHAR alpha
ENCODING 945
SWIDTH 480 0
DWIDTH 8 0
BBX 7 7 0 0
BITMAP
74
88
88
88
88
88
76
ENDCHAR
STARTCHAR beta
ENCODING 946
SWIDTH 480 0
DWIDTH 8 0
BBX 7 12 0 -2
BITMAP
38
44
84
84
98
84
82
82
82
9C
80
80
ENDCHAR
STARTCHAR gamma
ENCODING 947
SWIDTH 480 0
DWIDTH 8 0
BBX 7 10 0 -3
BITMAP
42
A2
12
14
08
08
14
14
14
08
ENDCHAR
STARTCHAR delta
ENCODING 948
SWIDTH 480 0
DWIDTH 8 0
BBX 7 10 0 0
BITMAP
7C
40
20
10
78
84
82
82
82
7C
ENDCHAR
STARTCHAR epsilon
ENCODING 949
SWIDTH 480 0
DWIDTH 8 0
BBX 7 7 0 0
BITMAP
7C
82
80
78
80
82
7C
ENDCHAR
STARTCHAR zeta
ENCODING 950
SWIDTH 480 0
DWIDTH 8 0
BBX 7 12 0 -2
BITMAP
FC
08
10
20
40
80
80
80
80
7C
02
1C
ENDCHAR
STARTCHAR eta
ENCODING 951
SWIDTH 480 0
DWIDTH 8 0
BBX 7 10 0 -3
BITMAP
BC
42
42
42
42
42
42
02
02
02
ENDCHAR
STARTCHAR theta
ENCODING 952
SWIDTH 480 0
DWIDTH 8 0
BBX 7 10 0 0
BITMAP
3C
42
42
22
12
0E
82
84
88
70
ENDCHAR
STARTCHAR iota
ENCODING 953
SWIDTH 480 0
DWIDTH 8 0
BBX 4 7 2 0
BITMAP
C0
40
40
40
40
40
70
ENDCHAR
STARTCHAR kappa
ENCODING 954
SWIDTH 480 0
DWIDTH 8 0
BBX 6 7 1 0
BITMAP
88
90
A0
E0
90
88
84
ENDCHAR
STARTCHAR lambda
ENCODING 955
SWIDTH 480 0
DWIDTH 8 0
BBX 7 10 0 0
BITMAP
80
40
20
20
10
10
28
44
44
82
ENDCHAR
STARTCHAR nu
ENCODING 957
SWIDTH 480 0
DWIDTH 8 0
BBX 7 7 0 0
BITMAP
C2
22
22
22
24
28
30
ENDCHAR
STARTCHAR xi
ENCODING 958
SWIDTH 480 0
DWIDTH 8 0
BBX 7 12 0 -2
BITMAP
FC
20
40
80
80
78
80
80
80
7C
02
0C
ENDCHAR
STARTCHAR omicron
ENCODING 959
SWIDTH 480 0
DWIDTH 8 0
BBX 7 7 0 0
BITMAP
7C
82
82
82
82
82
7C
ENDCHAR
STARTCHAR pi
ENCODING 960
SWIDTH 480 0
DWIDTH 8 0
BBX 7 7 0 0
BITMAP
FE
44
44
44
44
44
42
ENDCHAR
STARTCHAR rho
ENCODING 961
SWIDTH 480 0
DWIDTH 8 0
BBX 7 10 0 -3
BITMAP
3C
42
82
82
82
C2
BC
80
80
80
ENDCHAR
STARTCHAR sigma1
ENCODING 962
SWIDTH 480 0
DWIDTH 8 0
BBX 7 9 0 -2
BITMAP
7C
82
80
80
80
40
3C
02
0C
ENDCHAR
STARTCHAR sigma
ENCODING 963
SWIDTH 480 0
DWIDTH 8 0
BBX 7 7 0 0
BITMAP
7E
88
84
84
84
84
78
ENDCHAR
STARTCHAR tau
ENCODING 964
SWIDTH 480 0
DWIDTH 8 0
BBX 7 7 0 0
BITMAP
7E
90
10
10
10
10
0C
ENDCHAR
STARTCHAR upsilon
ENCODING 965
SWIDTH 480 0
DWIDTH 8 0
BBX 7 7 0 0
BITMAP
82
82
82
82
82
82
7C
ENDCHAR
STARTCHAR phi
ENCODING 966
SWIDTH 480 0
DWIDTH 8 0
BBX 7 12 0 -3
BITMAP
10
10
7C
92
92
92
92
92
7C
10
10
10
ENDCHAR
STARTCHAR chi
ENCODING 967
SWIDTH 480 0
DWIDTH 8 0
BBX 7 10 0 -3
BITMAP
42
A4
24
28
10
10
28
48
4A
84
ENDCHAR
STARTCHAR psi
ENCODING 968
SWIDTH 480 0
DWIDTH 8 0
BBX 7 10 0 -3
BITMAP
10
92
92
92
92
92
7C
10
10
10
ENDCHAR
STARTCHAR omega
ENCODING 969
SWIDTH 480 0
DWIDTH 8 0
BBX 7 7 0 0
BITMAP
44
82
82
92
92
92
6C
ENDCHAR
STARTCHAR iotadieresis
ENCODING 970
SWIDTH 480 0
DWIDTH 8 0
BBX 6 9 0 0
BITMAP
CC
00
30
10
10
10
10
10
1C
ENDCHAR
STARTCHAR upsilondieresis
ENCODING 971
SWIDTH 480 0
DWIDTH 8 0
BBX 7 9 0 0
BITMAP
C6
00
82
82
82
82
82
82
7C
ENDCHAR
STARTCHAR omicrontonos
ENCODING 972
SWIDTH 480 0
DWIDTH 8 0
BBX 7 11 0 0
BITMAP
10
10
10
00
7C
82
82
82
82
82
7C
ENDCHAR
STARTCHAR upsilontonos
ENCODING 973
SWIDTH 480 0
DWIDTH 8 0
BBX 7 11 0 0
BITMAP
10
10
10
00
82
82
82
82
82
82
7C
ENDCHAR
STARTCHAR omegatonos
ENCODING 974
SWIDTH 480 0
DWIDTH 8 0
BBX 7 11 0 0
BITMAP
10
10
10
00
44
82
82
92
92
92
6C
ENDCHAR
STARTCHAR afii10023
ENCODING 1025
SWIDTH 480 0
DWIDTH 8 0
BBX 7 12 0 0
BITMAP
44
44
00
FE
80
80
80
FC
80
80
80
FE
ENDCHAR
STARTCHAR afii10051
ENCODING 1026
SWIDTH 480 0
DWIDTH 8 0
BBX 7 13 0 -3
BITMAP
FE
40
40
5C
62
42
42
42
42
42
02
04
08
ENDCHAR
STARTCHAR afii10052
ENCODING 1027
SWIDTH 480 0
DWIDTH 8 0
BBX 7 12 0 0
BITMAP
0C
30
00
FE
82
80
80
80
80
80
80
80
ENDCHAR
STARTCHAR afii10053
ENCODING 1028
SWIDTH 480 0
DWIDTH 8 0
BBX 7 10 0 0
BITMAP
3A
46
82
80
F0
80
80
80
46
38
ENDCHAR
STARTCHAR afii10054
ENCODING 1029
SWIDTH 480 0
DWIDTH 8 0
BBX 7 10 0 0
BITMAP
7C
82
80
60
30
0C
02
82
82
7C
ENDCHAR
STARTCHAR afii10055
ENCODING 1030
SWIDTH 480 0
DWIDTH 8 0
BBX 5 10 1 0
BITMAP
F8
20
20
20
20
20
20
20
20
F8
ENDCHAR
STARTCHAR afii10056
ENCODING 1031
SWIDTH 480 0
DWIDTH 8 0
BBX 5 12 1 0
BITMAP
88
88
00
F8
20
20
20
20
20
20
20
F8
ENDCHAR
STARTCHAR afii10057
ENCODING 1032
SWIDTH 480 0
DWIDTH 8 0
BBX 7 10 0 0
BITMAP
3E
04
04
04
04
04
04
04
84
78
ENDCHAR
STARTCHAR afii10058
ENCODING 1033
SWIDTH 480 0
DWIDTH 8 0
BBX 7 10 0 0
BITMAP
F8
50
50
50
5C
52
52
52
52
9C
ENDCHAR
STARTCHAR afii10059
ENCODING 1034
SWIDTH 480 0
DWIDTH 8 0
BBX 7 10 0 0
BITMAP
90
90
90
90
FC
92
92
92
92
9C
ENDCHAR
STARTCHAR afii10060
ENCODING 1035
SWIDTH 480 0
DWIDTH 8 0
BBX 7 10 0 0
BITMAP
FE
20
20
2C
32
22
22
22
22
22
ENDCHAR
STARTCHAR afii10061
ENCODING 1036
SWIDTH 480 0
DWIDTH 8 0
BBX 7 12 0 0
BITMAP
0C
30
86
88
88
90
E0
A0
90
88
84
82
ENDCHAR
STARTCHAR afii10062
ENCODING 1038
SWIDTH 480 0
DWIDTH 8 0
BBX 7 12 0 0
BITMAP
44
38
00
82
82
82
82
46
3A
02
82
7C
ENDCHAR
STARTCHAR afii10145
ENCODING 1039
SWIDTH 480 0
DWIDTH 8 0
BBX 7 12 0 -2
BITMAP
82
82
82
82
82
82
82
82
82
FE
10
10
ENDCHAR
STARTCHAR afii10017
ENCODING 1040
SWIDTH 480 0
DWIDTH 8 0
BBX 7 10 0 0
BITMAP
38
44
82
82
82
FE
82
82
82
82
ENDCHAR
STARTCHAR afii10018
ENCODING 1041
SWIDTH 480 0
DWIDTH 8 0
BBX 7 10 0 0
BITMAP
FC
80
80
80
F8
84
82
82
84
F8
ENDCHAR
STARTCHAR afii10019
ENCODING 1042
SWIDTH 480 0
DWIDTH 8 0
BBX 7 10 0 0
BITMAP
FC
82
82
82
FC
82
82
82
82
FC
ENDCHAR
STARTCHAR afii10020
ENCODING 1043
SWIDTH 480 0
DWIDTH 8 0
BBX 7 10 0 0
BITMAP
FE
82
80
80
80
80
80
80
80
80
ENDCHAR
STARTCHAR afii10021
ENCODING 1044
SWIDTH 480 0
DWIDTH 8 0
BBX 7 12 0 -2
BITMAP
3C
24
24
24
24
44
44
44
84
FE
82
82
ENDCHAR
STARTCHAR afii10022
ENCODING 1045
SWIDTH 480 0
DWIDTH 8 0
BBX 7 10 0 0
BITMAP
FE
80
80
80
FC
80
80
80
80
FE
ENDCHAR
STARTCHAR afii10024
ENCODING 1046
SWIDTH 480 0
DWIDTH 8 0
BBX 7 10 0 0
BITMAP
92
54
54
54
38
54
92
92
92
92
ENDCHAR
STARTCHAR afii10025
ENCODING 1047
SWIDTH 480 0
DWIDTH 8 0
BBX 7 10 0 0
BITMAP
BC
C2
82
04
1C
02
02
02
C2
7C
ENDCHAR
STARTCHAR afii10026
ENCODING 1048
SWIDTH 480 0
DWIDTH 8 0
BBX 7 10 0 0
BITMAP
82
82
86
8A
92
A2
C2
82
82
82
ENDCHAR
STARTCHAR afii10027
ENCODING 1049
SWIDTH 480 0
DWIDTH 8 0
BBX 7 12 0 0
BITMAP
44
38
00
82
82
86
8A
92
A2
C2
82
82
ENDCHAR
STARTCHAR afii10028
ENCODING 1050
SWIDTH 480 0
DWIDTH 8 0
BBX 7 10 0 0
BITMAP
86
88
88
90
E0
A0
90
88
84
82
ENDCHAR
STARTCHAR afii10029
ENCODING 1051
SWIDTH 480 0
DWIDTH 8 0
BBX 7 10 0 0
BITMAP
3E
22
22
22
22
22
22
22
22
C2
ENDCHAR
STARTCHAR afii10030
ENCODING 1052
SWIDTH 480 0
DWIDTH 8 0
BBX 7 10 0 0
BITMAP
82
C6
AA
92
92
82
82
82
82
82
ENDCHAR
STARTCHAR afii10031
ENCODING 1053
SWIDTH 480 0
DWIDTH 8 0
BBX 7 10 0 0
BITMAP
82
82
82
82
FE
82
82
82
82
82
ENDCHAR
STARTCHAR afii10032
ENCODING 1054
SWIDTH 480 0
DWIDTH 8 0
BBX 7 10 0 0
BITMAP
7C
82
82
82
82
82
82
82
82
7C
ENDCHAR
STARTCHAR afii10033
ENCODING 1055
SWIDTH 480 0
DWIDTH 8 0
BBX 7 10 0 0
BITMAP
FE
82
82
82
82
82
82
82
82
82
ENDCHAR
STARTCHAR afii10034
ENCODING 1056
SWIDTH 480 0
DWIDTH 8 0
BBX 7 10 0 0
BITMAP
FC
82
82
82
FC
80
80
80
80
80
ENDCHAR
STARTCHAR afii10035
ENCODING 1057
SWIDTH 480 0
DWIDTH 8 0
BBX 7 10 0 0
BITMAP
7C
82
80
80
80
80
80
82
82
7C
ENDCHAR
STARTCHAR afii10036
ENCODING 1058
SWIDTH 480 0
DWIDTH 8 0
BBX 7 10 0 0
BITMAP
FE
10
10
10
10
10
10
10
10
10
ENDCHAR
STARTCHAR afii10037
ENCODING 1059
SWIDTH 480 0
DWIDTH 8 0
BBX 7 9 0 0
BITMAP
82
82
82
82
46
3A
02
82
7C
ENDCHAR
STARTCHAR afii10038
ENCODING 1060
SWIDTH 480 0
DWIDTH 8 0
BBX 7 10 0 0
BITMAP
10
7C
92
92
92
92
92
92
7C
10
ENDCHAR
STARTCHAR afii10039
ENCODING 1061
SWIDTH 480 0
DWIDTH 8 0
BBX 7 10 0 0
BITMAP
82
82
44
28
10
28
44
82
82
82
ENDCHAR
STARTCHAR afii10040
ENCODING 1062
SWIDTH 480 0
DWIDTH 8 0
BBX 7 12 0 -2
BITMAP
84
84
84
84
84
84
84
84
84
FE
02
02
ENDCHAR
STARTCHAR afii10041
ENCODING 1063
SWIDTH 480 0
DWIDTH 8 0
BBX 7 10 0 0
BITMAP
82
82
82
82
86
7A
02
02
02
02
ENDCHAR
STARTCHAR afii10042
ENCODING 1064
SWIDTH 480 0
DWIDTH 8 0
BBX 7 10 0 0
BITMAP
92
92
92
92
92
92
92
92
92
FE
ENDCHAR
STARTCHAR afii10043
ENCODING 1065
SWIDTH 480 0
DWIDTH 8 0
BBX 7 12 0 -2
BITMAP
92
92
92
92
92
92
92
92
92
FE
02
02
ENDCHAR
STARTCHAR afii10044
ENCODING 1066
SWIDTH 480 0
DWIDTH 8 0
BBX 7 10 0 0
BITMAP
E0
A0
20
20
2C
32
22
22
22
3C
ENDCHAR
STARTCHAR afii10045
ENCODING 1067
SWIDTH 480 0
DWIDTH 8 0
BBX 7 10 0 0
BITMAP
82
82
82
82
B2
CA
8A
8A
8A
F2
ENDCHAR
STARTCHAR afii10046
ENCODING 1068
SWIDTH 480 0
DWIDTH 8 0
BBX 6 10 1 0
BITMAP
80
80
80
80
B8
C4
84
84
84
F8
ENDCHAR
STARTCHAR afii10047
ENCODING 1069
SWIDTH 480 0
DWIDTH 8 0
BBX 7 10 0 0
BITMAP
B8
C4
82
02
1E
02
02
02
C4
78
ENDCHAR
STARTCHAR afii10048
ENCODING 1070
SWIDTH 480 0
DWIDTH 8 0
BBX 7 10 0 0
BITMAP
8C
92
92
92
F2
92
92
92
92
8C
ENDCHAR
STARTCHAR afii10049
ENCODING 1071
SWIDTH 480 0
DWIDTH 8 0
BBX 7 10 0 0
BITMAP
7E
82
82
82
7E
22
42
82
82
82
ENDCHAR
STARTCHAR afii10065
ENCODING 1072
SWIDTH 480 0
DWIDTH 8 0
BBX 7 7 0 0
BITMAP
78
04
04
7C
84
84
7E
ENDCHAR
STARTCHAR afii10066
ENCODING 1073
SWIDTH 480 0
DWIDTH 8 0
BBX 7 10 0 0
BITMAP
04
78
80
B8
C4
82
82
82
44
38
ENDCHAR
STARTCHAR afii10067
ENCODING 1074
SWIDTH 480 0
DWIDTH 8 0
BBX 6 7 1 0
BITMAP
F8
84
84
F8
84
84
F8
ENDCHAR
STARTCHAR afii10068
ENCODING 1075
SWIDTH 480 0
DWIDTH 8 0
BBX 5 7 1 0
BITMAP
F8
88
80
80
80
80
80
ENDCHAR
STARTCHAR afii10069
ENCODING 1076
SWIDTH 480 0
DWIDTH 8 0
BBX 7 9 0 -2
BITMAP
3C
24
24
24
24
44
FE
82
82
ENDCHAR
STARTCHAR afii10070
ENCODING 1077
SWIDTH 480 0
DWIDTH 8 0
BBX 7 7 0 0
BITMAP
7C
82
82
FE
80
80
7C
ENDCHAR
STARTCHAR afii10072
ENCODING 1078
SWIDTH 480 0
DWIDTH 8 0
BBX 7 7 0 0
BITMAP
D6
54
54
38
54
92
92
ENDCHAR
STARTCHAR afii10073
ENCODING 1079
SWIDTH 480 0
DWIDTH 8 0
BBX 6 7 1 0
BITMAP
F8
84
08
38
04
84
F8
ENDCHAR
STARTCHAR afii10074
ENCODING 1080
SWIDTH 480 0
DWIDTH 8 0
BBX 7 7 0 0
BITMAP
82
86
8A
92
A2
C2
82
ENDCHAR
STARTCHAR afii10075
ENCODING 1081
SWIDTH 480 0
DWIDTH 8 0
BBX 7 10 0 0
BITMAP
44
38
00
82
86
8A
92
A2
C2
82
ENDCHAR
STARTCHAR afii10076
ENCODING 1082
SWIDTH 480 0
DWIDTH 8 0
BBX 6 7 1 0
BITMAP
8C
90
90
E0
90
88
84
ENDCHAR
STARTCHAR afii10077
ENCODING 1083
SWIDTH 480 0
DWIDTH 8 0
BBX 7 7 0 0
BITMAP
3E
22
22
22
22
22
C2
ENDCHAR
STARTCHAR afii10078
ENCODING 1084
SWIDTH 480 0
DWIDTH 8 0
BBX 6 7 1 0
BITMAP
84
CC
B4
84
84
84
84
ENDCHAR
STARTCHAR afii10079
ENCODING 1085
SWIDTH 480 0
DWIDTH 8 0
BBX 6 7 1 0
BITMAP
84
84
84
FC
84
84
84
ENDCHAR
STARTCHAR afii10080
ENCODING 1086
SWIDTH 480 0
DWIDTH 8 0
BBX 7 7 0 0
BITMAP
7C
82
82
82
82
82
7C
ENDCHAR
STARTCHAR afii10081
ENCODING 1087
SWIDTH 480 0
DWIDTH 8 0
BBX 6 7 1 0
BITMAP
FC
84
84
84
84
84
84
ENDCHAR
STARTCHAR afii10082
ENCODING 1088
SWIDTH 480 0
DWIDTH 8 0
BBX 7 10 0 -3
BITMAP
BC
C2
82
82
82
C2
BC
80
80
80
ENDCHAR
STARTCHAR afii10083
ENCODING 1089
SWIDTH 480 0
DWIDTH 8 0
BBX 7 7 0 0
BITMAP
7C
82
80
80
80
82
7C
ENDCHAR
STARTCHAR afii10084
ENCODING 1090
SWIDTH 480 0
DWIDTH 8 0
BBX 5 7 1 0
BITMAP
F8
20
20
20
20
20
20
ENDCHAR
STARTCHAR afii10085
ENCODING 1091
SWIDTH 480 0
DWIDTH 8 0
BBX 7 10 0 -3
BITMAP
82
82
44
44
28
28
10
10
20
40
ENDCHAR
STARTCHAR afii10086
ENCODING 1092
SWIDTH 480 0
DWIDTH 8 0
BBX 7 13 0 -3
BITMAP
10
10
10
7C
92
92
92
92
92
7C
10
10
10
ENDCHAR
STARTCHAR afii10087
ENCODING 1093
SWIDTH 480 0
DWIDTH 8 0
BBX 7 7 0 0
BITMAP
82
44
28
10
28
44
82
ENDCHAR
STARTCHAR afii10088
ENCODING 1094
SWIDTH 480 0
DWIDTH 8 0
BBX 7 9 0 -2
BITMAP
84
84
84
84
84
84
FE
02
02
ENDCHAR
STARTCHAR afii10089
ENCODING 1095
SWIDTH 480 0
DWIDTH 8 0
BBX 6 7 0 0
BITMAP
84
84
8C
74
04
04
04
ENDCHAR
STARTCHAR afii10090
ENCODING 1096
SWIDTH 480 0
DWIDTH 8 0
BBX 7 7 0 0
BITMAP
92
92
92
92
92
92
FE
ENDCHAR
STARTCHAR afii10091
ENCODING 1097
SWIDTH 480 0
DWIDTH 8 0
BBX 7 9 0 -2
BITMAP
92
92
92
92
92
92
FE
02
02
ENDCHAR
STARTCHAR afii10092
ENCODING 1098
SWIDTH 480 0
DWIDTH 8 0
BBX 7 7 0 0
BITMAP
E0
A0
2C
32
22
22
3C
ENDCHAR
STARTCHAR afii10093
ENCODING 1099
SWIDTH 480 0
DWIDTH 8 0
BBX 7 7 0 0
BITMAP
82
82
B2
CA
8A
8A
F2
ENDCHAR
STARTCHAR afii10094
ENCODING 1100
SWIDTH 480 0
DWIDTH 8 0
BBX 6 7 1 0
BITMAP
80
80
B8
C4
84
84
F8
ENDCHAR
STARTCHAR afii10095
ENCODING 1101
SWIDTH 480 0
DWIDTH 8 0
BBX 6 7 1 0
BITMAP
F8
84
04
3C
04
84
F8
ENDCHAR
STARTCHAR afii10096
ENCODING 1102
SWIDTH 480 0
DWIDTH 8 0
BBX 7 7 0 0
BITMAP
8C
92
92
F2
92
92
8C
ENDCHAR
STARTCHAR afii10097
ENCODING 1103
SWIDTH 480 0
DWIDTH 8 0
BBX 6 7 0 0
BITMAP
7C
84
84
7C
24
44
84
ENDCHAR
STARTCHAR afii10071
ENCODING 1105
SWIDTH 480 0
DWIDTH 8 0
BBX 7 11 0 0
BITMAP
42
42
00
00
7C
82
82
FE
80
80
7E
ENDCHAR
STARTCHAR afii10099
ENCODING 1106
SWIDTH 480 0
DWIDTH 8 0
BBX 7 12 0 -2
BITMAP
40
F0
40
5C
62
42
42
42
42
42
02
04
ENDCHAR
STARTCHAR afii10100
ENCODING 1107
SWIDTH 480 0
DWIDTH 8 0
BBX 5 11 1 0
BITMAP
10
20
40
00
F8
88
80
80
80
80
80
ENDCHAR
STARTCHAR afii10101
ENCODING 1108
SWIDTH 480 0
DWIDTH 8 0
BBX 6 7 1 0
BITMAP
7C
84
80
70
80
84
7C
ENDCHAR
STARTCHAR afii10102
ENCODING 1109
SWIDTH 480 0
DWIDTH 8 0
BBX 7 7 0 0
BITMAP
7E
80
80
7C
02
02
FC
ENDCHAR
STARTCHAR afii10103
ENCODING 1110
SWIDTH 480 0
DWIDTH 8 0
BBX 5 10 1 0
BITMAP
20
20
00
E0
20
20
20
20
20
F8
ENDCHAR
STARTCHAR afii10104
ENCODING 1111
SWIDTH 480 0
DWIDTH 8 0
BBX 5 10 1 0
BITMAP
88
88
00
E0
20
20
20
20
20
F8
ENDCHAR
STARTCHAR afii10105
ENCODING 1112
SWIDTH 480 0
DWIDTH 8 0
BBX 4 13 1 -3
BITMAP
10
10
00
70
10
10
10
10
10
10
10
10
E0
ENDCHAR
STARTCHAR afii10106
ENCODING 1113
SWIDTH 480 0
DWIDTH 8 0
BBX 7 7 0 0
BITMAP
F8
50
50
5C
52
52
9C
ENDCHAR
STARTCHAR afii10107
ENCODING 1114
SWIDTH 480 0
DWIDTH 8 0
BBX 7 7 0 0
BITMAP
90
90
90
FC
92
92
9C
ENDCHAR
STARTCHAR afii10108
ENCODING 1115
SWIDTH 480 0
DWIDTH 8 0
BBX 7 10 0 0
BITMAP
40
F0
40
5C
62
42
42
42
42
42
ENDCHAR
STARTCHAR afii10109
ENCODING 1116
SWIDTH 480 0
DWIDTH 8 0
BBX 6 11 1 0
BITMAP
08
10
20
00
8C
90
90
E0
90
88
84
ENDCHAR
STARTCHAR afii10110
ENCODING 1118
SWIDTH 480 0
DWIDTH 8 0
BBX 7 13 0 -3
BITMAP
44
38
00
82
82
44
44
28
28
10
10
20
40
ENDCHAR
STARTCHAR afii10193
ENCODING 1119
SWIDTH 480 0
DWIDTH 8 0
BBX 7 9 0 -2
BITMAP
82
82
82
82
82
82
FE
10
10
ENDCHAR
STARTCHAR afii00208
ENCODING 8213
SWIDTH 480 0
DWIDTH 8 0
BBX 7 1 0 4
BITMAP
FE
ENDCHAR
STARTCHAR underscoredbl
ENCODING 8215
SWIDTH 480 0
DWIDTH 8 0
BBX 8 3 0 -2
BITMAP
FF
00
FF
ENDCHAR
STARTCHAR quoteleft
ENCODING 8216
SWIDTH 480 0
DWIDTH 8 0
BBX 2 4 2 7
BITMAP
80
80
80
40
ENDCHAR
STARTCHAR quoteright
ENCODING 8217
SWIDTH 480 0
DWIDTH 8 0
BBX 2 4 2 7
BITMAP
40
40
40
80
ENDCHAR
STARTCHAR exclamdbl
ENCODING 8252
SWIDTH 480 0
DWIDTH 8 0
BBX 5 10 1 0
BITMAP
88
88
88
88
88
88
88
00
88
88
ENDCHAR
STARTCHAR nsuperior
ENCODING 8319
SWIDTH 480 0
DWIDTH 8 0
BBX 6 6 0 5
BITMAP
B8
44
44
44
44
44
ENDCHAR
STARTCHAR peseta
ENCODING 8359
SWIDTH 480 0
DWIDTH 8 0
BBX 6 10 0 0
BITMAP
F8
84
84
F8
80
88
9C
88
88
84
ENDCHAR
STARTCHAR afii61352
ENCODING 8470
SWIDTH 480 0
DWIDTH 8 0
BBX 8 9 0 0
BITMAP
8A
8D
CD
AA
98
8B
88
88
88
ENDCHAR
STARTCHAR arrowleft
ENCODING 8592
SWIDTH 480 0
DWIDTH 8 0
BBX 7 7 0 1
BITMAP
10
20
40
FE
40
20
10
ENDCHAR
STARTCHAR arrowup
ENCODING 8593
SWIDTH 480 0
DWIDTH 8 0
BBX 7 10 0 0
BITMAP
10
38
54
92
10
10
10
10
10
10
ENDCHAR
STARTCHAR arrowright
ENCODING 8594
SWIDTH 480 0
DWIDTH 8 0
BBX 7 7 0 1
BITMAP
10
08
04
FE
04
08
10
ENDCHAR
STARTCHAR arrowdown
ENCODING 8595
SWIDTH 480 0
DWIDTH 8 0
BBX 7 10 0 0
BITMAP
10
10
10
10
10
10
92
54
38
10
ENDCHAR
STARTCHAR arrowboth
ENCODING 8596
SWIDTH 480 0
DWIDTH 8 0
BBX 8 5 0 2
BITMAP
24
42
FF
42
24
ENDCHAR
STARTCHAR arrowupdn
ENCODING 8597
SWIDTH 480 0
DWIDTH 8 0
BBX 7 10 0 0
BITMAP
10
38
54
92
10
10
92
54
38
10
ENDCHAR
STARTCHAR arrowupdnbse
ENCODING 8616
SWIDTH 480 0
DWIDTH 8 0
BBX 7 10 0 0
BITMAP
10
38
54
92
10
10
92
54
38
FE
ENDCHAR
STARTCHAR radical
ENCODING 8730
SWIDTH 480 0
DWIDTH 8 0
BBX 7 11 0 0
BITMAP
0E
08
08
08
08
08
08
C8
28
18
08
ENDCHAR
STARTCHAR infinity
ENCODING 8734
SWIDTH 480 0
DWIDTH 8 0
BBX 7 5 0 2
BITMAP
6C
92
92
92
6C
ENDCHAR
STARTCHAR intersection
ENCODING 8745
SWIDTH 480 0
DWIDTH 8 0
BBX 7 9 0 0
BITMAP
7C
82
82
82
82
82
82
82
82
ENDCHAR
STARTCHAR approxequal
ENCODING 8776
SWIDTH 480 0
DWIDTH 8 0
BBX 6 5 0 2
BITMAP
64
98
00
64
98
ENDCHAR
STARTCHAR equivalence
ENCODING 8801
SWIDTH 480 0
DWIDTH 8 0
BBX 7 7 0 1
BITMAP
FE
00
00
FE
00
00
FE
ENDCHAR
STARTCHAR lessequal
ENCODING 8804
SWIDTH 480 0
DWIDTH 8 0
BBX 5 9 1 0
BITMAP
10
20
40
80
40
20
10
00
F8
ENDCHAR
STARTCHAR greaterequal
ENCODING 8805
SWIDTH 480 0
DWIDTH 8 0
BBX 5 9 1 0
BITMAP
40
20
10
08
10
20
40
00
F8
ENDCHAR
STARTCHAR revlogicalnot
ENCODING 8976
SWIDTH 480 0
DWIDTH 8 0
BBX 6 5 0 1
BITMAP
FC
80
80
80
80
ENDCHAR
STARTCHAR integraltp
ENCODING 8992
SWIDTH 480 0
DWIDTH 8 0
BBX 4 14 3 -4
BITMAP
60
90
90
80
80
80
80
80
80
80
80
80
80
80
ENDCHAR
STARTCHAR integralbt
ENCODING 8993
SWIDTH 480 0
DWIDTH 8 0
BBX 4 12 0 0
BITMAP
10
10
10
10
10
10
10
10
10
90
90
60
ENDCHAR
STARTCHAR SF100000
ENCODING 9472
SWIDTH 480 0
DWIDTH 8 0
BBX 8 1 0 4
BITMAP
FF
ENDCHAR
STARTCHAR SF110000
ENCODING 9474
SWIDTH 480 0
DWIDTH 8 0
BBX 1 16 4 -4
BITMAP
80
80
80
80
80
80
80
80
80
80
80
80
80
80
80
80
ENDCHAR
STARTCHAR SF010000
ENCODING 9484
SWIDTH 480 0
DWIDTH 8 0
BBX 4 9 4 -4
BITMAP
F0
80
80
80
80
80
80
80
80
ENDCHAR
STARTCHAR SF030000
ENCODING 9488
SWIDTH 480 0
DWIDTH 8 0
BBX 5 9 0 -4
BITMAP
F8
08
08
08
08
08
08
08
08
ENDCHAR
STARTCHAR SF020000
ENCODING 9492
SWIDTH 480 0
DWIDTH 8 0
BBX 4 8 4 4
BITMAP
80
80
80
80
80
80
80
F0
ENDCHAR
STARTCHAR SF040000
ENCODING 9496
SWIDTH 480 0
DWIDTH 8 0
BBX 5 8 0 4
BITMAP
08
08
08
08
08
08
08
F8
ENDCHAR
STARTCHAR SF080000
ENCODING 9500
SWIDTH 480 0
DWIDTH 8 0
BBX 4 16 4 -4
BITMAP
80
80
80
80
80
80
80
F0
80
80
80
80
80
80
80
80
ENDCHAR
STARTCHAR SF090000
ENCODING 9508
SWIDTH 480 0
DWIDTH 8 0
BBX 5 16 0 -4
BITMAP
08
08
08
08
08
08
08
F8
08
08
08
08
08
08
08
08
ENDCHAR
STARTCHAR SF060000
ENCODING 9516
SWIDTH 480 0
DWIDTH 8 0
BBX 8 9 0 -4
BITMAP
FF
08
08
08
08
08
08
08
08
ENDCHAR
STARTCHAR SF070000
ENCODING 9524
SWIDTH 480 0
DWIDTH 8 0
BBX 8 8 0 4
BITMAP
08
08
08
08
08
08
08
FF
ENDCHAR
STARTCHAR SF050000
ENCODING 9532
SWIDTH 480 0
DWIDTH 8 0
BBX 8 16 0 -4
BITMAP
08
08
08
08
08
08
08
FF
08
08
08
08
08
08
08
08
ENDCHAR
STARTCHAR SF430000
ENCODING 9552
SWIDTH 480 0
DWIDTH 8 0
BBX 8 3 0 4
BITMAP
FF
00
FF
ENDCHAR
STARTCHAR SF240000
ENCODING 9553
SWIDTH 480 0
DWIDTH 8 0
BBX 4 16 2 -4
BITMAP
90
90
90
90
90
90
90
90
90
90
90
90
90
90
90
90
ENDCHAR
STARTCHAR SF510000
ENCODING 9554
SWIDTH 480 0
DWIDTH 8 0
BBX 4 11 4 -4
BITMAP
F0
80
F0
80
80
80
80
80
80
80
80
ENDCHAR
STARTCHAR SF520000
ENCODING 9555
SWIDTH 480 0
DWIDTH 8 0
BBX 6 9 2 -4
BITMAP
FC
90
90
90
90
90
90
90
90
ENDCHAR
STARTCHAR SF390000
ENCODING 9556
SWIDTH 480 0
DWIDTH 8 0
BBX 6 11 2 -4
BITMAP
FC
80
9C
90
90
90
90
90
90
90
90
ENDCHAR
STARTCHAR SF220000
ENCODING 9557
SWIDTH 480 0
DWIDTH 8 0
BBX 5 11 0 -4
BITMAP
F8
08
F8
08
08
08
08
08
08
08
08
ENDCHAR
STARTCHAR SF210000
ENCODING 9558
SWIDTH 480 0
DWIDTH 8 0
BBX 6 9 0 -4
BITMAP
FC
24
24
24
24
24
24
24
24
ENDCHAR
STARTCHAR SF250000
ENCODING 9559
SWIDTH 480 0
DWIDTH 8 0
BBX 6 11 0 -4
BITMAP
FC
04
E4
24
24
24
24
24
24
24
24
ENDCHAR
STARTCHAR SF500000
ENCODING 9560
SWIDTH 480 0
DWIDTH 8 0
BBX 4 8 4 4
BITMAP
80
80
80
80
80
F0
80
F0
ENDCHAR
STARTCHAR SF490000
ENCODING 9561
SWIDTH 480 0
DWIDTH 8 0
BBX 6 8 2 4
BITMAP
90
90
90
90
90
90
90
FC
ENDCHAR
STARTCHAR SF380000
ENCODING 9562
SWIDTH 480 0
DWIDTH 8 0
BBX 6 8 2 4
BITMAP
90
90
90
90
90
9C
80
FC
ENDCHAR
STARTCHAR SF280000
ENCODING 9563
SWIDTH 480 0
DWIDTH 8 0
BBX 5 8 0 4
BITMAP
08
08
08
08
08
F8
08
F8
ENDCHAR
STARTCHAR SF270000
ENCODING 9564
SWIDTH 480 0
DWIDTH 8 0
BBX 6 8 0 4
BITMAP
24
24
24
24
24
24
24
FC
ENDCHAR
STARTCHAR SF260000
ENCODING 9565
SWIDTH 480 0
DWIDTH 8 0
BBX 6 8 0 4
BITMAP
24
24
24
24
24
E4
04
FC
ENDCHAR
STARTCHAR SF360000
ENCODING 9566
SWIDTH 480 0
DWIDTH 8 0
BBX 4 16 4 -4
BITMAP
80
80
80
80
80
F0
80
F0
80
80
80
80
80
80
80
80
ENDCHAR
STARTCHAR SF370000
ENCODING 9567
SWIDTH 480 0
DWIDTH 8 0
BBX 6 16 2 -4
BITMAP
90
90
90
90
90
90
90
9C
90
90
90
90
90
90
90
90
ENDCHAR
STARTCHAR SF420000
ENCODING 9568
SWIDTH 480 0
DWIDTH 8 0
BBX 6 16 2 -4
BITMAP
90
90
90
90
90
9C
80
9C
90
90
90
90
90
90
90
90
ENDCHAR
STARTCHAR SF190000
ENCODING 9569
SWIDTH 480 0
DWIDTH 8 0
BBX 5 16 0 -4
BITMAP
08
08
08
08
08
F8
08
F8
08
08
08
08
08
08
08
08
ENDCHAR
STARTCHAR SF200000
ENCODING 9570
SWIDTH 480 0
DWIDTH 8 0
BBX 6 16 0 -4
BITMAP
24
24
24
24
24
24
24
E4
24
24
24
24
24
24
24
24
ENDCHAR
STARTCHAR SF230000
ENCODING 9571
SWIDTH 480 0
DWIDTH 8 0
BBX 6 16 0 -4
BITMAP
24
24
24
24
24
E4
04
E4
24
24
24
24
24
24
24
24
ENDCHAR
STARTCHAR SF470000
ENCODING 9572
SWIDTH 480 0
DWIDTH 8 0
BBX 8 11 0 -4
BITMAP
FF
00
FF
08
08
08
08
08
08
08
08
ENDCHAR
STARTCHAR SF480000
ENCODING 9573
SWIDTH 480 0
DWIDTH 8 0
BBX 8 9 0 -4
BITMAP
FF
24
24
24
24
24
24
24
24
ENDCHAR
STARTCHAR SF410000
ENCODING 9574
SWIDTH 480 0
DWIDTH 8 0
BBX 8 11 0 -4
BITMAP
FF
00
E7
24
24
24
24
24
24
24
24
ENDCHAR
STARTCHAR SF450000
ENCODING 9575
SWIDTH 480 0
DWIDTH 8 0
BBX 8 8 0 4
BITMAP
08
08
08
08
08
FF
00
FF
ENDCHAR
STARTCHAR SF460000
ENCODING 9576
SWIDTH 480 0
DWIDTH 8 0
BBX 8 8 0 4
BITMAP
24
24
24
24
24
24
24
FF
ENDCHAR
STARTCHAR SF400000
ENCODING 9577
SWIDTH 480 0
DWIDTH 8 0
BBX 8 8 0 4
BITMAP
24
24
24
24
24
E7
00
FF
ENDCHAR
STARTCHAR SF540000
ENCODING 9578
SWIDTH 480 0
DWIDTH 8 0
BBX 8 16 0 -4
BITMAP
08
08
08
08
08
FF
08
FF
08
08
08
08
08
08
08
08
ENDCHAR
STARTCHAR SF530000
ENCODING 9579
SWIDTH 480 0
DWIDTH 8 0
BBX 8 16 0 -4
BITMAP
24
24
24
24
24
24
24
FF
24
24
24
24
24
24
24
24
ENDCHAR
STARTCHAR SF440000
ENCODING 9580
SWIDTH 480 0
DWIDTH 8 0
BBX 8 16 0 -4
BITMAP
24
24
24
24
24
E7
00
E7
24
24
24
24
24
24
24
24
ENDCHAR
STARTCHAR upblock
ENCODING 9600
SWIDTH 480 0
DWIDTH 8 0
BBX 8 7 0 5
BITMAP
FF
FF
FF
FF
FF
FF
FF
ENDCHAR
STARTCHAR dnblock
ENCODING 9604
SWIDTH 480 0
DWIDTH 8 0
BBX 8 9 0 -4
BITMAP
FF
FF
FF
FF
FF
FF
FF
FF
FF
ENDCHAR
STARTCHAR block
ENCODING 9608
SWIDTH 480 0
DWIDTH 8 0
BBX 8 16 0 -4
BITMAP
FF
FF
FF
FF
FF
FF
FF
FF
FF
FF
FF
FF
FF
FF
FF
FF
ENDCHAR
STARTCHAR lfblock
ENCODING 9612
SWIDTH 480 0
DWIDTH 8 0
BBX 4 16 0 -4
BITMAP
F0
F0
F0
F0
F0
F0
F0
F0
F0
F0
F0
F0
F0
F0
F0
F0
ENDCHAR
STARTCHAR rtblock
ENCODING 9616
SWIDTH 480 0
DWIDTH 8 0
BBX 4 16 4 -4
BITMAP
F0
F0
F0
F0
F0
F0
F0
F0
F0
F0
F0
F0
F0
F0
F0
F0
ENDCHAR
STARTCHAR ltshade
ENCODING 9617
SWIDTH 480 0
DWIDTH 8 0
BBX 7 16 1 -4
BITMAP
22
88
22
88
22
88
22
88
22
88
22
88
22
88
22
88
ENDCHAR
STARTCHAR shade
ENCODING 9618
SWIDTH 480 0
DWIDTH 8 0
BBX 8 16 0 -4
BITMAP
55
AA
55
AA
55
AA
55
AA
55
AA
55
AA
55
AA
55
AA
ENDCHAR
STARTCHAR dkshade
ENCODING 9619
SWIDTH 480 0
DWIDTH 8 0
BBX 8 16 0 -4
BITMAP
DD
77
DD
77
DD
77
DD
77
DD
77
DD
77
DD
77
DD
77
ENDCHAR
STARTCHAR filledbox
ENCODING 9632
SWIDTH 480 0
DWIDTH 8 0
BBX 5 7 1 1
BITMAP
F8
F8
F8
F8
F8
F8
F8
ENDCHAR
STARTCHAR triagup
ENCODING 9650
SWIDTH 480 0
DWIDTH 8 0
BBX 7 5 0 2
BITMAP
10
38
7C
FE
FE
ENDCHAR
STARTCHAR uni25B6
ENCODING 9654
SWIDTH 480 0
DWIDTH 8 0
BBX 5 7 0 0
BITMAP
C0
E0
F0
F8
F0
E0
C0
ENDCHAR
STARTCHAR triagdn
ENCODING 9660
SWIDTH 480 0
DWIDTH 8 0
BBX 7 5 0 2
BITMAP
FE
FE
7C
38
10
ENDCHAR
STARTCHAR uni25C0
ENCODING 9664
SWIDTH 480 0
DWIDTH 8 0
BBX 5 7 0 0
BITMAP
18
38
78
F8
78
38
18
ENDCHAR
STARTCHAR circle
ENCODING 9675
SWIDTH 480 0
DWIDTH 8 0
BBX 6 6 1 1
BITMAP
78
CC
84
84
CC
78
ENDCHAR
STARTCHAR invbullet
ENCODING 9688
SWIDTH 480 0
DWIDTH 8 0
BBX 8 16 0 -4
BITMAP
FF
FF
FF
FF
FF
FF
E7
C3
C3
E7
FF
FF
FF
FF
FF
FF
ENDCHAR
STARTCHAR invcircle
ENCODING 9689
SWIDTH 480 0
DWIDTH 8 0
BBX 8 16 0 -4
BITMAP
FF
FF
FF
FF
FF
C3
99
BD
BD
99
C3
FF
FF
FF
FF
FF
ENDCHAR
STARTCHAR uni2600
ENCODING 9728
SWIDTH 480 0
DWIDTH 8 0
BBX 7 11 0 -1
BITMAP
10
92
7C
44
82
82
82
44
7C
92
10
ENDCHAR
STARTCHAR smileface
ENCODING 9786
SWIDTH 480 0
DWIDTH 8 0
BBX 7 10 0 0
BITMAP
7C
82
82
AA
82
82
BA
92
82
7C
ENDCHAR
STARTCHAR invsmileface
ENCODING 9787
SWIDTH 480 0
DWIDTH 8 0
BBX 7 10 0 0
BITMAP
7C
FE
FE
D6
FE
FE
C6
EE
FE
7C
ENDCHAR
STARTCHAR female
ENCODING 9792
SWIDTH 480 0
DWIDTH 8 0
BBX 7 10 0 0
BITMAP
7C
82
82
82
7C
10
10
7C
10
10
ENDCHAR
STARTCHAR male
ENCODING 9794
SWIDTH 480 0
DWIDTH 8 0
BBX 8 11 0 0
BITMAP
1E
06
0D
0A
10
10
7C
82
82
82
7C
ENDCHAR
STARTCHAR spade
ENCODING 9824
SWIDTH 480 0
DWIDTH 8 0
BBX 7 8 0 0
BITMAP
10
38
7C
FE
FE
54
10
38
ENDCHAR
STARTCHAR club
ENCODING 9827
SWIDTH 480 0
DWIDTH 8 0
BBX 7 8 0 0
BITMAP
38
38
38
EE
EE
EE
10
38
ENDCHAR
STARTCHAR heart
ENCODING 9829
SWIDTH 480 0
DWIDTH 8 0
BBX 7 6 0 1
BITMAP
6C
FE
FE
7C
38
10
ENDCHAR
STARTCHAR diamond
ENCODING 9830
SWIDTH 480 0
DWIDTH 8 0
BBX 7 7 0 1
BITMAP
10
38
7C
FE
7C
38
10
ENDCHAR
STARTCHAR musicalnote
ENCODING 9834
SWIDTH 480 0
DWIDTH 8 0
BBX 7 10 0 0
BITMAP
1E
12
1E
10
10
10
10
F0
F0
E0
ENDCHAR
STARTCHAR uni266C
ENCODING 9836
SWIDTH 480 0
DWIDTH 8 0
BBX 7 10 0 0
BITMAP
3E
22
3E
22
22
22
2E
EE
EC
C0
ENDCHAR
ENDFONT
